<svg xmlns="http://www.w3.org/2000/svg" xmlns:xlink="http://www.w3.org/1999/xlink" width="18px"
                            height="18px" viewBox="0 0 18 18" version="1.1" style="color: white;">
                            <g id="surface1">
                                <path
                                    style=" stroke:CurrentColor;fill-rule:nonzero;fill:rgb(100%,100%,100%);fill-opacity:1;"
                                    d="M 8.230469 1.550781 C 7.957031 1.585938 7.652344 1.632812 7.519531 1.664062 C 7.46875 1.675781 7.390625 1.695312 7.339844 1.703125 C 7.1875 1.730469 6.863281 1.816406 6.761719 1.855469 C 6.730469 1.867188 6.660156 1.890625 6.601562 1.910156 C 6.539062 1.929688 6.453125 1.957031 6.410156 1.972656 C 6.367188 1.988281 6.292969 2.019531 6.25 2.035156 C 5.683594 2.25 4.957031 2.652344 4.476562 3.023438 C 3.617188 3.6875 2.941406 4.457031 2.441406 5.351562 C 2.382812 5.449219 2.144531 5.929688 2.113281 6.011719 C 2.097656 6.042969 2.070312 6.101562 2.054688 6.140625 C 2.039062 6.179688 2.011719 6.246094 1.992188 6.289062 C 1.976562 6.335938 1.949219 6.40625 1.933594 6.449219 C 1.914062 6.492188 1.886719 6.578125 1.867188 6.640625 C 1.851562 6.699219 1.824219 6.78125 1.808594 6.820312 C 1.796875 6.859375 1.773438 6.941406 1.753906 7 C 1.738281 7.058594 1.710938 7.160156 1.691406 7.222656 C 1.675781 7.285156 1.660156 7.355469 1.660156 7.378906 C 1.660156 7.402344 1.648438 7.472656 1.632812 7.535156 C 1.589844 7.699219 1.546875 7.980469 1.507812 8.328125 C 1.472656 8.675781 1.476562 9.453125 1.519531 9.828125 C 1.539062 10.035156 1.554688 10.113281 1.632812 10.53125 C 1.671875 10.734375 1.761719 11.082031 1.808594 11.21875 C 1.824219 11.257812 1.851562 11.339844 1.867188 11.398438 C 1.902344 11.511719 1.925781 11.570312 1.988281 11.738281 C 2.027344 11.828125 2.035156 11.851562 2.132812 12.070312 C 2.265625 12.375 2.453125 12.730469 2.558594 12.890625 C 2.589844 12.933594 2.617188 12.984375 2.625 13 C 2.640625 13.035156 2.675781 13.085938 2.804688 13.273438 C 3.109375 13.71875 3.546875 14.214844 4.003906 14.625 C 4.144531 14.753906 4.1875 14.785156 4.433594 14.980469 C 4.582031 15.101562 4.945312 15.34375 5.148438 15.464844 C 5.238281 15.519531 5.324219 15.570312 5.339844 15.578125 C 5.382812 15.605469 5.898438 15.859375 5.96875 15.886719 C 6.003906 15.902344 6.0625 15.929688 6.101562 15.945312 C 6.136719 15.960938 6.207031 15.988281 6.25 16.007812 C 6.292969 16.023438 6.367188 16.050781 6.410156 16.066406 C 6.453125 16.085938 6.578125 16.125 6.691406 16.160156 C 6.800781 16.195312 6.917969 16.230469 6.949219 16.242188 C 7.027344 16.269531 7.222656 16.316406 7.339844 16.339844 C 7.390625 16.347656 7.476562 16.367188 7.535156 16.378906 C 7.792969 16.433594 7.871094 16.445312 8.210938 16.480469 C 9.125 16.578125 10.097656 16.496094 10.980469 16.246094 C 11.136719 16.203125 11.457031 16.101562 11.539062 16.070312 C 12.035156 15.882812 12.589844 15.617188 12.855469 15.4375 C 12.902344 15.40625 12.945312 15.378906 12.949219 15.378906 C 12.964844 15.378906 13.414062 15.070312 13.527344 14.980469 C 13.773438 14.785156 13.8125 14.753906 13.957031 14.625 C 14.441406 14.191406 14.835938 13.738281 15.1875 13.222656 C 15.269531 13.101562 15.339844 12.996094 15.339844 12.988281 C 15.339844 12.984375 15.367188 12.945312 15.398438 12.894531 C 15.496094 12.742188 15.742188 12.273438 15.851562 12.023438 C 15.867188 11.988281 15.890625 11.929688 15.90625 11.894531 C 15.921875 11.859375 15.949219 11.792969 15.96875 11.742188 C 15.984375 11.699219 16.011719 11.625 16.027344 11.585938 C 16.0625 11.5 16.160156 11.183594 16.207031 11.019531 C 16.289062 10.734375 16.316406 10.605469 16.386719 10.199219 C 16.527344 9.417969 16.503906 8.285156 16.335938 7.558594 C 16.324219 7.511719 16.304688 7.429688 16.296875 7.378906 C 16.277344 7.265625 16.230469 7.066406 16.203125 6.988281 C 16.191406 6.957031 16.152344 6.839844 16.121094 6.730469 C 16.085938 6.621094 16.042969 6.496094 16.027344 6.453125 C 16.011719 6.414062 15.984375 6.34375 15.96875 6.292969 C 15.933594 6.207031 15.90625 6.140625 15.855469 6.019531 C 15.8125 5.933594 15.5625 5.421875 15.539062 5.378906 C 15.53125 5.363281 15.476562 5.277344 15.425781 5.191406 C 15.304688 4.984375 15.058594 4.621094 14.941406 4.472656 C 14.746094 4.226562 14.710938 4.1875 14.585938 4.042969 C 14.175781 3.585938 13.679688 3.148438 13.230469 2.84375 C 13.046875 2.714844 12.996094 2.683594 12.960938 2.664062 C 12.945312 2.65625 12.894531 2.628906 12.851562 2.597656 C 12.691406 2.492188 12.335938 2.304688 12.03125 2.171875 C 11.8125 2.074219 11.789062 2.066406 11.699219 2.03125 C 11.53125 1.964844 11.46875 1.945312 11.359375 1.90625 C 11.300781 1.890625 11.21875 1.863281 11.179688 1.851562 C 11.117188 1.824219 11.015625 1.796875 10.75 1.726562 C 10.65625 1.703125 10.496094 1.671875 10.160156 1.609375 C 9.707031 1.527344 8.695312 1.496094 8.230469 1.550781 Z M 9.589844 3.050781 C 9.921875 3.09375 10.191406 3.136719 10.308594 3.171875 C 10.46875 3.210938 10.585938 3.242188 10.660156 3.257812 C 10.699219 3.265625 10.75 3.285156 10.773438 3.296875 C 10.796875 3.308594 10.835938 3.320312 10.859375 3.320312 C 10.878906 3.320312 10.929688 3.332031 10.964844 3.347656 C 11 3.363281 11.101562 3.40625 11.191406 3.441406 C 11.277344 3.476562 11.402344 3.53125 11.46875 3.558594 C 11.535156 3.589844 11.605469 3.621094 11.621094 3.628906 C 11.636719 3.632812 11.664062 3.648438 11.679688 3.65625 C 11.695312 3.664062 11.726562 3.683594 11.753906 3.695312 C 11.847656 3.742188 11.992188 3.824219 12.050781 3.863281 C 12.085938 3.882812 12.125 3.90625 12.140625 3.914062 C 12.195312 3.941406 12.433594 4.109375 12.671875 4.289062 C 12.996094 4.539062 13.46875 5.011719 13.730469 5.351562 C 13.871094 5.53125 14.058594 5.804688 14.085938 5.859375 C 14.09375 5.875 14.117188 5.914062 14.140625 5.949219 C 14.160156 5.980469 14.214844 6.082031 14.261719 6.171875 C 14.304688 6.257812 14.351562 6.34375 14.359375 6.359375 C 14.375 6.386719 14.472656 6.605469 14.53125 6.730469 C 14.578125 6.84375 14.617188 6.949219 14.652344 7.058594 C 14.671875 7.121094 14.699219 7.199219 14.714844 7.234375 C 14.726562 7.269531 14.738281 7.3125 14.738281 7.328125 C 14.738281 7.351562 14.753906 7.40625 14.769531 7.457031 C 14.949219 8.027344 15.027344 8.980469 14.949219 9.621094 C 14.910156 9.949219 14.863281 10.226562 14.828125 10.351562 C 14.8125 10.402344 14.796875 10.472656 14.792969 10.5 C 14.78125 10.578125 14.71875 10.804688 14.699219 10.839844 C 14.691406 10.855469 14.664062 10.9375 14.640625 11.015625 C 14.617188 11.097656 14.589844 11.164062 14.578125 11.171875 C 14.566406 11.179688 14.558594 11.199219 14.558594 11.21875 C 14.558594 11.238281 14.546875 11.28125 14.53125 11.3125 C 14.503906 11.375 14.449219 11.492188 14.433594 11.539062 C 14.425781 11.554688 14.410156 11.585938 14.402344 11.601562 C 14.390625 11.617188 14.378906 11.644531 14.371094 11.660156 C 14.367188 11.675781 14.351562 11.703125 14.34375 11.71875 C 14.332031 11.734375 14.304688 11.789062 14.28125 11.832031 C 14.210938 11.96875 14.191406 12.007812 14.132812 12.09375 C 14.105469 12.140625 14.078125 12.183594 14.078125 12.1875 C 14.078125 12.21875 13.726562 12.703125 13.550781 12.910156 C 13.421875 13.0625 13.023438 13.460938 12.871094 13.59375 C 12.660156 13.765625 12.179688 14.121094 12.148438 14.121094 C 12.144531 14.121094 12.101562 14.144531 12.054688 14.175781 C 12.007812 14.203125 11.949219 14.238281 11.921875 14.253906 C 11.808594 14.316406 11.726562 14.359375 11.699219 14.367188 C 11.683594 14.375 11.65625 14.386719 11.640625 14.398438 C 11.625 14.40625 11.597656 14.421875 11.578125 14.429688 C 11.5625 14.433594 11.535156 14.449219 11.519531 14.457031 C 11.441406 14.503906 11.078125 14.648438 10.941406 14.691406 C 10.878906 14.710938 10.816406 14.730469 10.796875 14.738281 C 10.761719 14.757812 10.535156 14.820312 10.460938 14.835938 C 10.433594 14.839844 10.367188 14.855469 10.308594 14.871094 C 10.1875 14.902344 9.910156 14.949219 9.578125 14.988281 C 8.9375 15.066406 7.992188 14.988281 7.417969 14.808594 C 7.367188 14.792969 7.308594 14.78125 7.289062 14.78125 C 7.273438 14.78125 7.226562 14.769531 7.195312 14.753906 C 7.15625 14.738281 7.078125 14.710938 7.019531 14.691406 C 6.910156 14.65625 6.804688 14.617188 6.691406 14.570312 C 6.5625 14.515625 6.347656 14.414062 6.320312 14.398438 C 6.304688 14.390625 6.21875 14.347656 6.128906 14.300781 C 6.042969 14.257812 5.945312 14.203125 5.914062 14.183594 C 5.886719 14.164062 5.804688 14.113281 5.734375 14.070312 C 5.574219 13.972656 5.382812 13.828125 5.140625 13.632812 C 4.984375 13.507812 4.546875 13.074219 4.40625 12.910156 C 4.230469 12.699219 3.914062 12.269531 3.875 12.179688 C 3.867188 12.164062 3.84375 12.121094 3.820312 12.089844 C 3.800781 12.054688 3.757812 11.984375 3.730469 11.933594 C 3.652344 11.789062 3.644531 11.773438 3.632812 11.738281 C 3.625 11.722656 3.613281 11.695312 3.601562 11.679688 C 3.574219 11.640625 3.472656 11.410156 3.429688 11.300781 C 3.394531 11.210938 3.375 11.164062 3.3125 11.015625 C 3.292969 10.972656 3.28125 10.921875 3.28125 10.898438 C 3.28125 10.875 3.269531 10.839844 3.257812 10.8125 C 3.242188 10.789062 3.226562 10.738281 3.21875 10.699219 C 3.203125 10.625 3.171875 10.511719 3.128906 10.351562 C 3.097656 10.222656 3.050781 9.941406 3.011719 9.621094 C 2.945312 9.070312 2.996094 8.234375 3.128906 7.679688 C 3.191406 7.425781 3.226562 7.304688 3.253906 7.242188 C 3.269531 7.207031 3.28125 7.164062 3.28125 7.144531 C 3.28125 7.125 3.292969 7.085938 3.308594 7.050781 C 3.324219 7.023438 3.339844 6.984375 3.339844 6.96875 C 3.339844 6.953125 3.355469 6.90625 3.371094 6.867188 C 3.390625 6.824219 3.417969 6.761719 3.429688 6.730469 C 3.445312 6.695312 3.46875 6.636719 3.484375 6.601562 C 3.503906 6.5625 3.523438 6.515625 3.527344 6.5 C 3.535156 6.484375 3.550781 6.453125 3.5625 6.429688 C 3.589844 6.382812 3.597656 6.375 3.699219 6.171875 C 3.742188 6.082031 3.800781 5.980469 3.820312 5.949219 C 3.84375 5.914062 3.867188 5.878906 3.871094 5.863281 C 3.894531 5.8125 4.191406 5.386719 4.21875 5.359375 C 4.226562 5.355469 4.285156 5.28125 4.347656 5.199219 C 4.503906 5.007812 4.964844 4.542969 5.160156 4.386719 C 5.242188 4.324219 5.3125 4.265625 5.320312 4.261719 C 5.347656 4.230469 5.773438 3.9375 5.820312 3.910156 C 5.839844 3.90625 5.878906 3.882812 5.910156 3.859375 C 5.96875 3.820312 6.574219 3.519531 6.691406 3.472656 C 6.722656 3.457031 6.785156 3.429688 6.824219 3.410156 C 6.867188 3.394531 6.917969 3.378906 6.9375 3.378906 C 6.957031 3.378906 6.980469 3.371094 6.992188 3.363281 C 7.003906 3.351562 7.046875 3.335938 7.089844 3.320312 C 7.132812 3.3125 7.253906 3.28125 7.351562 3.25 C 7.707031 3.144531 7.882812 3.109375 8.308594 3.058594 C 8.695312 3.015625 9.273438 3.011719 9.589844 3.050781 Z M 9.589844 3.050781 " />
                                <path style=" stroke:none;fill-rule:nonzero;fill:rgb(100%,100%,100%);fill-opacity:1;"
                                    d="M 8.738281 4.558594 C 8.488281 4.648438 8.292969 4.867188 8.246094 5.109375 C 8.226562 5.21875 8.222656 8.6875 8.242188 8.992188 C 8.257812 9.253906 8.269531 9.292969 8.386719 9.445312 C 8.46875 9.554688 10.671875 11.742188 10.78125 11.824219 C 10.957031 11.953125 11.007812 11.96875 11.230469 11.96875 C 11.457031 11.96875 11.507812 11.953125 11.683594 11.820312 C 11.871094 11.6875 11.980469 11.46875 11.980469 11.230469 C 11.980469 11.09375 11.941406 10.941406 11.886719 10.878906 C 11.871094 10.863281 11.859375 10.835938 11.859375 10.824219 C 11.859375 10.808594 11.378906 10.324219 10.796875 9.742188 L 9.730469 8.683594 L 9.726562 6.9375 C 9.726562 5.976562 9.71875 5.152344 9.710938 5.109375 C 9.664062 4.863281 9.472656 4.648438 9.210938 4.554688 C 9.089844 4.511719 8.863281 4.511719 8.738281 4.558594 Z M 8.738281 4.558594 " />
                            </g>
                        </svg>