<svg xmlns="http://www.w3.org/2000/svg" xmlns:xlink="http://www.w3.org/1999/xlink" width="18px"
                            height="18px" viewBox="0 0 18 18" version="1.1" style="color: white;">
                            <g id="surface1">
                                <path
                                    style=" stroke:currentColor;fill-rule:nonzero;fill:rgb(100%,100%,100%);fill-opacity:1;"
                                    d="M 3.945312 0.0234375 C 3.949219 0.0390625 3.90625 0.0585938 3.839844 0.0703125 C 3.378906 0.175781 2.945312 0.453125 2.652344 0.835938 C 2.558594 0.964844 2.441406 1.152344 2.441406 1.179688 C 2.441406 1.1875 2.429688 1.222656 2.410156 1.253906 C 2.320312 1.433594 2.261719 1.660156 2.238281 1.921875 C 2.210938 2.234375 2.210938 15.804688 2.238281 16.121094 C 2.261719 16.378906 2.320312 16.605469 2.410156 16.785156 C 2.429688 16.816406 2.441406 16.851562 2.441406 16.863281 C 2.441406 16.871094 2.46875 16.925781 2.503906 16.984375 C 2.816406 17.5 3.289062 17.847656 3.859375 17.972656 C 4.054688 18.015625 13.902344 18.015625 14.101562 17.972656 C 14.710938 17.835938 15.238281 17.429688 15.496094 16.890625 C 15.644531 16.589844 15.691406 16.421875 15.71875 16.109375 C 15.746094 15.800781 15.746094 2.253906 15.71875 1.929688 C 15.695312 1.652344 15.640625 1.4375 15.546875 1.253906 C 15.53125 1.222656 15.519531 1.1875 15.519531 1.179688 C 15.519531 1.152344 15.402344 0.964844 15.304688 0.835938 C 15.011719 0.449219 14.578125 0.171875 14.109375 0.0703125 C 14.050781 0.0585938 14.011719 0.0390625 14.015625 0.0234375 C 14.019531 0.0078125 12.960938 0 8.980469 0 C 5.03125 0 3.941406 0.0078125 3.945312 0.0234375 Z M 13.949219 1.195312 C 14.117188 1.257812 14.203125 1.3125 14.320312 1.429688 C 14.449219 1.554688 14.53125 1.699219 14.570312 1.859375 C 14.613281 2.023438 14.613281 16.015625 14.570312 16.179688 C 14.53125 16.34375 14.449219 16.484375 14.320312 16.613281 C 14.203125 16.726562 14.117188 16.785156 13.949219 16.84375 C 13.855469 16.878906 13.617188 16.878906 8.980469 16.878906 C 4.34375 16.878906 4.105469 16.878906 4.011719 16.84375 C 3.84375 16.785156 3.757812 16.726562 3.636719 16.613281 C 3.511719 16.484375 3.429688 16.34375 3.386719 16.179688 C 3.347656 16.015625 3.347656 2.023438 3.386719 1.859375 C 3.460938 1.5625 3.691406 1.308594 3.984375 1.203125 C 4.089844 1.164062 4.207031 1.164062 8.96875 1.160156 C 13.621094 1.160156 13.855469 1.160156 13.949219 1.195312 Z M 13.949219 1.195312 " />
                                <path style=" stroke:none;fill-rule:nonzero;fill:rgb(100%,100%,100%);fill-opacity:1;"
                                    d="M 8.011719 2.289062 C 7.742188 2.328125 7.546875 2.410156 7.339844 2.566406 C 6.992188 2.828125 6.792969 3.175781 6.742188 3.609375 C 6.710938 3.855469 6.710938 6.152344 6.742188 6.308594 C 6.785156 6.542969 6.945312 6.707031 7.183594 6.757812 C 7.425781 6.808594 7.675781 6.6875 7.800781 6.449219 C 7.839844 6.378906 7.847656 6.324219 7.855469 6.015625 L 7.863281 5.660156 L 8.597656 5.660156 L 8.605469 6.015625 C 8.609375 6.320312 8.617188 6.378906 8.648438 6.441406 C 8.789062 6.6875 9.03125 6.808594 9.277344 6.757812 C 9.46875 6.714844 9.601562 6.609375 9.683594 6.429688 L 9.730469 6.328125 L 9.734375 5.089844 C 9.738281 4.242188 9.734375 3.78125 9.71875 3.632812 C 9.683594 3.3125 9.601562 3.101562 9.410156 2.851562 C 9.167969 2.535156 8.832031 2.34375 8.429688 2.289062 C 8.320312 2.273438 8.222656 2.261719 8.210938 2.261719 C 8.199219 2.265625 8.109375 2.277344 8.011719 2.289062 Z M 8.363281 3.429688 C 8.457031 3.46875 8.53125 3.542969 8.570312 3.632812 C 8.597656 3.695312 8.601562 3.78125 8.597656 4.109375 L 8.589844 4.511719 L 8.242188 4.515625 C 8.050781 4.519531 7.882812 4.511719 7.875 4.503906 C 7.84375 4.472656 7.859375 3.710938 7.890625 3.632812 C 7.96875 3.449219 8.1875 3.355469 8.363281 3.429688 Z M 8.363281 3.429688 " />
                                <path style=" stroke:none;fill-rule:nonzero;fill:rgb(100%,100%,100%);fill-opacity:1;"
                                    d="M 11.851562 2.289062 C 11.691406 2.324219 11.570312 2.417969 11.480469 2.570312 C 11.441406 2.640625 11.433594 2.683594 11.421875 2.921875 L 11.410156 3.191406 L 11.160156 3.199219 C 10.941406 3.210938 10.894531 3.21875 10.796875 3.265625 C 10.375 3.472656 10.375 4.070312 10.796875 4.277344 C 10.894531 4.320312 10.941406 4.328125 11.160156 4.339844 L 11.410156 4.351562 L 11.421875 4.621094 C 11.433594 4.890625 11.433594 4.894531 11.507812 5.003906 C 11.742188 5.355469 12.21875 5.355469 12.453125 5.003906 C 12.527344 4.894531 12.527344 4.890625 12.539062 4.621094 L 12.550781 4.351562 L 12.800781 4.339844 C 13.089844 4.324219 13.195312 4.289062 13.320312 4.15625 C 13.539062 3.933594 13.53125 3.59375 13.3125 3.371094 C 13.191406 3.246094 13.085938 3.214844 12.800781 3.203125 L 12.550781 3.191406 L 12.539062 2.921875 C 12.527344 2.683594 12.519531 2.640625 12.476562 2.570312 C 12.386719 2.421875 12.265625 2.324219 12.105469 2.289062 C 11.972656 2.257812 11.980469 2.257812 11.851562 2.289062 Z M 11.851562 2.289062 " />
                                <path style=" stroke:none;fill-rule:nonzero;fill:rgb(100%,100%,100%);fill-opacity:1;"
                                    d="M 4.941406 9.421875 C 4.707031 9.496094 4.539062 9.726562 4.539062 9.96875 C 4.539062 10.101562 4.636719 10.296875 4.746094 10.386719 C 4.925781 10.53125 4.679688 10.519531 7.886719 10.519531 C 10.585938 10.519531 10.777344 10.519531 10.863281 10.484375 C 11.113281 10.386719 11.269531 10.117188 11.21875 9.859375 C 11.175781 9.648438 11.027344 9.480469 10.824219 9.421875 C 10.699219 9.378906 10.636719 9.378906 7.882812 9.382812 C 5.113281 9.382812 5.066406 9.382812 4.941406 9.421875 Z M 4.941406 9.421875 " />
                                <path style=" stroke:none;fill-rule:nonzero;fill:rgb(100%,100%,100%);fill-opacity:1;"
                                    d="M 5 11.65625 C 4.679688 11.707031 4.457031 12.085938 4.574219 12.382812 C 4.617188 12.492188 4.726562 12.628906 4.816406 12.6875 C 4.972656 12.785156 4.882812 12.78125 9.078125 12.777344 C 12.203125 12.769531 13.046875 12.765625 13.105469 12.742188 C 13.210938 12.707031 13.378906 12.546875 13.433594 12.429688 C 13.558594 12.164062 13.4375 11.847656 13.15625 11.695312 L 13.070312 11.648438 L 9.078125 11.648438 C 6.886719 11.644531 5.050781 11.652344 5 11.65625 Z M 5 11.65625 " />
                                <path style=" stroke:none;fill-rule:nonzero;fill:rgb(100%,100%,100%);fill-opacity:1;"
                                    d="M 4.941406 13.921875 C 4.707031 13.996094 4.539062 14.226562 4.539062 14.46875 C 4.539062 14.601562 4.636719 14.796875 4.746094 14.886719 C 4.925781 15.03125 4.679688 15.019531 7.886719 15.019531 C 10.585938 15.019531 10.777344 15.019531 10.863281 14.984375 C 11.113281 14.886719 11.269531 14.617188 11.21875 14.359375 C 11.175781 14.148438 11.027344 13.980469 10.824219 13.921875 C 10.699219 13.878906 10.636719 13.878906 7.882812 13.882812 C 5.113281 13.882812 5.066406 13.882812 4.941406 13.921875 Z M 4.941406 13.921875 " />
                            </g>
                        </svg>