<svg xmlns="http://www.w3.org/2000/svg" xmlns:xlink="http://www.w3.org/1999/xlink" width="17px"
                            height="18px" viewBox="0 0 18 18" version="1.1" style="color: white;">
                            <g id="surface1">
                                <path
                                    style=" stroke:currentColor;fill-rule:nonzero;fill:rgb(100%,100%,100%);fill-opacity:1;"
                                    d="M 2.859375 1.3125 C 2.816406 1.328125 2.757812 1.367188 2.734375 1.398438 C 2.695312 1.449219 2.691406 1.46875 2.6875 1.78125 C 2.6875 1.957031 2.679688 2.109375 2.671875 2.117188 C 2.664062 2.125 2.609375 2.097656 2.542969 2.066406 C 2.480469 2.03125 2.363281 1.972656 2.289062 1.933594 C 2.210938 1.894531 2.136719 1.855469 2.125 1.847656 C 2.074219 1.804688 1.964844 1.804688 1.886719 1.84375 C 1.738281 1.917969 1.738281 1.917969 1.738281 2.324219 C 1.738281 2.519531 1.730469 2.683594 1.726562 2.691406 C 1.722656 2.695312 1.6875 2.691406 1.65625 2.675781 C 1.621094 2.664062 1.558594 2.636719 1.511719 2.621094 C 1.464844 2.605469 1.402344 2.578125 1.371094 2.570312 C 1.269531 2.527344 1.179688 2.503906 1.132812 2.503906 C 1.066406 2.507812 0.976562 2.558594 0.929688 2.632812 C 0.890625 2.6875 0.886719 2.710938 0.886719 3.027344 L 0.886719 3.363281 L 0.835938 3.363281 C 0.789062 3.363281 0.648438 3.332031 0.464844 3.277344 C 0.414062 3.261719 0.355469 3.253906 0.339844 3.253906 C 0.285156 3.253906 0.175781 3.316406 0.132812 3.367188 C 0.09375 3.414062 0.09375 3.453125 0.09375 8.53125 L 0.09375 13.652344 L 0.132812 13.707031 C 0.179688 13.769531 0.296875 13.832031 0.367188 13.832031 C 0.398438 13.832031 0.433594 13.839844 0.457031 13.851562 C 0.476562 13.863281 0.53125 13.878906 0.582031 13.886719 C 0.632812 13.894531 0.738281 13.917969 0.820312 13.941406 C 0.90625 13.964844 1.007812 13.988281 1.046875 13.996094 C 1.183594 14.023438 1.441406 14.085938 1.632812 14.132812 C 1.6875 14.144531 1.78125 14.167969 1.839844 14.183594 C 1.902344 14.199219 1.992188 14.222656 2.039062 14.234375 C 2.152344 14.261719 2.292969 14.296875 2.597656 14.363281 C 2.648438 14.371094 2.71875 14.390625 2.75 14.398438 C 2.804688 14.417969 2.953125 14.457031 3.105469 14.488281 C 3.359375 14.542969 3.445312 14.5625 3.472656 14.578125 C 3.488281 14.589844 3.546875 14.601562 3.597656 14.609375 C 3.652344 14.617188 3.703125 14.625 3.710938 14.636719 C 3.722656 14.644531 3.765625 14.652344 3.804688 14.660156 C 3.894531 14.671875 4.078125 14.710938 4.175781 14.742188 C 4.210938 14.753906 4.300781 14.773438 4.371094 14.789062 C 4.445312 14.808594 4.546875 14.832031 4.597656 14.84375 C 4.652344 14.855469 4.730469 14.878906 4.777344 14.890625 C 4.871094 14.914062 5.070312 14.960938 5.175781 14.984375 C 5.25 14.996094 5.378906 15.03125 5.523438 15.066406 C 5.578125 15.078125 5.683594 15.101562 5.761719 15.121094 C 5.839844 15.136719 5.929688 15.160156 5.960938 15.167969 C 6.011719 15.1875 6.148438 15.21875 6.316406 15.257812 C 6.476562 15.292969 6.625 15.328125 6.773438 15.367188 C 6.855469 15.386719 6.957031 15.414062 7 15.421875 C 7.039062 15.429688 7.128906 15.449219 7.195312 15.464844 C 7.265625 15.476562 7.386719 15.507812 7.46875 15.53125 C 7.554688 15.554688 7.65625 15.578125 7.695312 15.585938 C 7.824219 15.613281 7.992188 15.652344 8.152344 15.695312 C 8.265625 15.730469 8.347656 15.738281 8.5 15.738281 C 8.671875 15.738281 8.890625 15.703125 8.949219 15.667969 C 8.96875 15.660156 9.214844 15.601562 9.480469 15.546875 C 9.539062 15.535156 9.613281 15.515625 9.648438 15.5 C 9.683594 15.488281 9.730469 15.476562 9.757812 15.476562 C 9.78125 15.476562 9.835938 15.464844 9.875 15.449219 C 9.910156 15.433594 9.960938 15.421875 9.988281 15.421875 C 10.011719 15.421875 10.078125 15.410156 10.128906 15.394531 C 10.332031 15.335938 10.546875 15.28125 10.683594 15.253906 C 10.722656 15.246094 10.796875 15.230469 10.84375 15.21875 C 11 15.179688 11.269531 15.113281 11.371094 15.09375 C 11.40625 15.085938 11.503906 15.058594 11.589844 15.039062 C 11.671875 15.015625 11.773438 14.988281 11.816406 14.980469 C 11.855469 14.972656 11.9375 14.957031 11.996094 14.945312 C 12.050781 14.933594 12.128906 14.914062 12.164062 14.902344 C 12.199219 14.886719 12.296875 14.863281 12.382812 14.847656 C 12.464844 14.828125 12.558594 14.804688 12.589844 14.796875 C 12.621094 14.789062 12.683594 14.773438 12.730469 14.761719 C 12.777344 14.753906 12.882812 14.730469 12.96875 14.707031 C 13.144531 14.664062 13.207031 14.648438 13.375 14.613281 C 13.441406 14.597656 13.519531 14.574219 13.550781 14.5625 C 13.578125 14.554688 13.621094 14.542969 13.648438 14.542969 C 13.671875 14.542969 13.730469 14.535156 13.773438 14.519531 C 13.820312 14.507812 13.921875 14.480469 14.007812 14.460938 C 14.089844 14.445312 14.179688 14.421875 14.207031 14.414062 C 14.25 14.398438 14.304688 14.386719 14.574219 14.324219 C 14.742188 14.285156 14.878906 14.253906 14.933594 14.238281 C 14.964844 14.226562 15.054688 14.207031 15.140625 14.1875 C 15.222656 14.171875 15.335938 14.144531 15.386719 14.132812 C 15.4375 14.117188 15.535156 14.09375 15.601562 14.078125 C 15.671875 14.0625 15.769531 14.035156 15.820312 14.023438 C 15.875 14.007812 15.933594 13.996094 15.953125 13.996094 C 15.96875 13.996094 16.023438 13.984375 16.074219 13.96875 C 16.25 13.917969 16.515625 13.851562 16.632812 13.832031 C 16.746094 13.8125 16.824219 13.765625 16.878906 13.683594 L 16.925781 13.613281 L 16.925781 3.464844 L 16.886719 3.402344 C 16.835938 3.328125 16.71875 3.253906 16.652344 3.253906 C 16.625 3.253906 16.570312 3.265625 16.535156 3.28125 C 16.496094 3.292969 16.449219 3.308594 16.425781 3.308594 C 16.40625 3.308594 16.351562 3.320312 16.3125 3.335938 C 16.269531 3.347656 16.207031 3.359375 16.175781 3.363281 L 16.113281 3.363281 L 16.113281 3.042969 C 16.113281 2.65625 16.089844 2.585938 15.945312 2.527344 C 15.851562 2.492188 15.828125 2.492188 15.554688 2.597656 C 15.414062 2.648438 15.292969 2.683594 15.28125 2.675781 C 15.269531 2.667969 15.261719 2.554688 15.261719 2.34375 C 15.265625 1.953125 15.25 1.90625 15.125 1.847656 C 14.988281 1.785156 14.992188 1.785156 14.613281 1.976562 C 14.578125 1.996094 14.539062 2.019531 14.53125 2.03125 C 14.527344 2.039062 14.511719 2.046875 14.496094 2.046875 C 14.480469 2.046875 14.441406 2.066406 14.414062 2.085938 C 14.382812 2.105469 14.351562 2.117188 14.339844 2.113281 C 14.324219 2.101562 14.316406 1.992188 14.316406 1.785156 L 14.316406 1.472656 L 14.261719 1.402344 C 14.226562 1.359375 14.171875 1.328125 14.117188 1.308594 C 14.039062 1.28125 14.023438 1.28125 13.972656 1.304688 C 13.910156 1.335938 13.90625 1.335938 13.453125 1.660156 C 13.285156 1.78125 13.117188 1.898438 13.078125 1.925781 C 13.039062 1.949219 12.984375 1.988281 12.957031 2.011719 C 12.929688 2.03125 12.878906 2.070312 12.84375 2.09375 C 12.808594 2.117188 12.753906 2.15625 12.722656 2.179688 C 12.667969 2.21875 12.484375 2.347656 12.378906 2.421875 C 12.351562 2.441406 12.304688 2.472656 12.28125 2.492188 C 12.253906 2.515625 12.207031 2.546875 12.175781 2.566406 C 12.144531 2.585938 12.109375 2.605469 12.097656 2.617188 C 12.050781 2.65625 11.519531 3.03125 11.511719 3.03125 C 11.507812 3.03125 11.488281 3.046875 11.472656 3.058594 C 11.40625 3.113281 10.671875 3.636719 10.660156 3.636719 C 10.648438 3.636719 10.566406 3.699219 10.480469 3.773438 C 10.460938 3.789062 10.441406 3.800781 10.4375 3.800781 C 10.429688 3.800781 10.277344 3.910156 10.089844 4.042969 C 9.902344 4.175781 9.605469 4.386719 9.425781 4.511719 C 8.929688 4.863281 8.917969 4.871094 8.703125 5.027344 L 8.5 5.171875 L 8.4375 5.128906 C 8.402344 5.109375 8.363281 5.078125 8.347656 5.066406 C 8.332031 5.054688 8.25 4.996094 8.167969 4.9375 C 8.011719 4.828125 7.957031 4.792969 7.167969 4.230469 C 6.914062 4.050781 6.660156 3.867188 6.601562 3.828125 C 6.457031 3.730469 6.082031 3.460938 6.035156 3.425781 C 6.015625 3.40625 5.957031 3.367188 5.902344 3.332031 C 5.851562 3.296875 5.785156 3.253906 5.75 3.230469 C 5.578125 3.101562 5.324219 2.921875 5.242188 2.867188 C 5.191406 2.835938 5.136719 2.796875 5.121094 2.78125 C 5.078125 2.746094 4.488281 2.328125 4.425781 2.292969 C 4.398438 2.273438 4.359375 2.246094 4.339844 2.230469 C 4.324219 2.214844 4.28125 2.183594 4.246094 2.160156 C 4.210938 2.136719 4.023438 2.003906 3.832031 1.867188 C 3.640625 1.730469 3.46875 1.609375 3.453125 1.597656 C 3.4375 1.585938 3.332031 1.515625 3.226562 1.441406 C 3.117188 1.363281 3.007812 1.296875 2.984375 1.289062 C 2.957031 1.285156 2.902344 1.292969 2.859375 1.3125 Z M 3.398438 1.972656 C 3.582031 2.101562 3.777344 2.242188 3.835938 2.285156 C 4.035156 2.429688 4.429688 2.710938 4.550781 2.792969 C 4.621094 2.839844 4.6875 2.890625 4.703125 2.902344 C 4.753906 2.941406 5.234375 3.285156 5.363281 3.371094 C 5.476562 3.441406 5.972656 3.796875 6.015625 3.832031 C 6.027344 3.839844 6.050781 3.851562 6.070312 3.859375 C 6.109375 3.875 6.113281 3.910156 6.074219 3.910156 C 6.050781 3.910156 5.972656 3.871094 5.816406 3.78125 C 5.800781 3.769531 5.746094 3.742188 5.695312 3.71875 C 5.589844 3.664062 5.445312 3.589844 5.242188 3.484375 C 4.808594 3.253906 4.671875 3.179688 4.550781 3.117188 C 4.425781 3.054688 4.125 2.898438 3.859375 2.757812 C 3.804688 2.726562 3.714844 2.679688 3.660156 2.652344 C 3.40625 2.519531 3.289062 2.457031 3.195312 2.410156 C 3.03125 2.328125 3.042969 2.351562 3.042969 2.027344 C 3.042969 1.867188 3.046875 1.734375 3.054688 1.734375 C 3.0625 1.738281 3.21875 1.84375 3.398438 1.972656 Z M 13.9375 2.332031 C 13.921875 2.34375 13.84375 2.386719 13.761719 2.429688 C 13.613281 2.503906 13.515625 2.554688 13.25 2.695312 C 13.179688 2.734375 13.0625 2.792969 12.996094 2.828125 C 12.925781 2.863281 12.820312 2.917969 12.757812 2.949219 C 12.695312 2.984375 12.605469 3.035156 12.550781 3.058594 C 12.414062 3.128906 12.058594 3.316406 11.890625 3.410156 C 11.847656 3.433594 11.773438 3.472656 11.71875 3.496094 C 11.667969 3.523438 11.570312 3.574219 11.503906 3.609375 C 11.34375 3.695312 11.140625 3.800781 11.023438 3.863281 C 10.867188 3.941406 10.890625 3.886719 11.0625 3.765625 C 11.152344 3.699219 11.242188 3.636719 11.261719 3.625 C 11.28125 3.617188 11.484375 3.472656 11.714844 3.308594 C 11.945312 3.140625 12.15625 2.992188 12.179688 2.976562 C 12.230469 2.945312 12.683594 2.625 12.902344 2.464844 C 13.027344 2.375 13.460938 2.066406 13.519531 2.027344 C 13.539062 2.011719 13.617188 1.960938 13.6875 1.910156 C 13.757812 1.863281 13.847656 1.800781 13.882812 1.777344 L 13.949219 1.730469 L 13.957031 2.019531 C 13.957031 2.238281 13.953125 2.316406 13.9375 2.332031 Z M 2.148438 2.230469 C 2.171875 2.253906 2.191406 2.265625 2.394531 2.367188 C 2.472656 2.410156 2.570312 2.460938 2.605469 2.480469 C 2.640625 2.503906 2.714844 2.539062 2.765625 2.566406 C 2.820312 2.59375 2.9375 2.652344 3.03125 2.703125 C 3.125 2.753906 3.246094 2.816406 3.296875 2.839844 C 3.347656 2.867188 3.441406 2.917969 3.503906 2.949219 C 3.566406 2.984375 3.625 3.015625 3.636719 3.023438 C 3.648438 3.027344 3.667969 3.035156 3.683594 3.039062 C 3.699219 3.046875 3.742188 3.070312 3.777344 3.089844 C 3.8125 3.113281 3.898438 3.15625 3.964844 3.195312 C 4.035156 3.230469 4.136719 3.28125 4.191406 3.3125 C 4.5 3.472656 4.675781 3.566406 4.863281 3.664062 C 4.984375 3.722656 5.203125 3.839844 5.394531 3.941406 C 5.457031 3.972656 5.519531 4.007812 5.535156 4.015625 C 5.550781 4.023438 5.605469 4.050781 5.652344 4.078125 C 5.703125 4.105469 5.753906 4.128906 5.769531 4.128906 C 5.785156 4.128906 5.804688 4.140625 5.8125 4.15625 C 5.820312 4.167969 5.84375 4.183594 5.863281 4.1875 C 5.882812 4.191406 5.902344 4.203125 5.910156 4.214844 C 5.917969 4.25 5.847656 4.246094 5.816406 4.210938 C 5.804688 4.195312 5.777344 4.183594 5.757812 4.183594 C 5.742188 4.183594 5.695312 4.171875 5.664062 4.160156 C 5.585938 4.125 5.324219 4.023438 5.222656 3.988281 C 5.0625 3.929688 5.007812 3.910156 4.792969 3.828125 C 4.671875 3.785156 4.5625 3.746094 4.554688 3.746094 C 4.542969 3.746094 4.5 3.730469 4.457031 3.710938 C 4.386719 3.683594 4.175781 3.605469 3.890625 3.5 C 3.855469 3.484375 3.789062 3.460938 3.746094 3.445312 C 3.699219 3.429688 3.628906 3.402344 3.589844 3.390625 C 3.457031 3.34375 3.355469 3.304688 3.316406 3.285156 C 3.253906 3.261719 3.074219 3.195312 3.003906 3.171875 C 2.90625 3.136719 2.796875 3.09375 2.699219 3.058594 C 2.652344 3.042969 2.582031 3.015625 2.539062 3.003906 C 2.5 2.988281 2.441406 2.964844 2.414062 2.949219 C 2.386719 2.933594 2.347656 2.921875 2.328125 2.921875 C 2.308594 2.921875 2.277344 2.910156 2.253906 2.894531 C 2.238281 2.882812 2.199219 2.867188 2.179688 2.867188 C 2.085938 2.867188 2.078125 2.832031 2.078125 2.523438 C 2.078125 2.210938 2.085938 2.171875 2.148438 2.230469 Z M 14.917969 2.523438 C 14.914062 2.820312 14.914062 2.820312 14.867188 2.84375 C 14.816406 2.867188 14.574219 2.960938 14.449219 3.003906 C 14.011719 3.164062 13.953125 3.183594 13.851562 3.226562 C 13.820312 3.242188 13.78125 3.253906 13.765625 3.253906 C 13.753906 3.253906 13.726562 3.265625 13.707031 3.28125 C 13.683594 3.292969 13.65625 3.308594 13.636719 3.308594 C 13.617188 3.308594 13.578125 3.320312 13.550781 3.335938 C 13.519531 3.347656 13.480469 3.363281 13.464844 3.363281 C 13.445312 3.363281 13.429688 3.371094 13.421875 3.378906 C 13.417969 3.386719 13.386719 3.398438 13.359375 3.40625 C 13.328125 3.414062 13.28125 3.429688 13.25 3.441406 C 13.199219 3.464844 13.113281 3.496094 12.953125 3.554688 C 12.65625 3.660156 12.515625 3.714844 12.496094 3.730469 C 12.484375 3.738281 12.464844 3.746094 12.453125 3.746094 C 12.4375 3.746094 12.398438 3.757812 12.367188 3.769531 C 12.300781 3.796875 12.175781 3.84375 12.066406 3.882812 C 12.027344 3.898438 11.960938 3.921875 11.925781 3.9375 C 11.691406 4.019531 11.472656 4.101562 11.347656 4.15625 C 11.308594 4.171875 11.257812 4.183594 11.234375 4.183594 C 11.210938 4.183594 11.175781 4.195312 11.15625 4.210938 C 11.136719 4.226562 11.113281 4.234375 11.101562 4.226562 C 11.078125 4.214844 11.105469 4.183594 11.144531 4.183594 C 11.164062 4.183594 11.183594 4.171875 11.191406 4.15625 C 11.195312 4.140625 11.214844 4.128906 11.238281 4.128906 C 11.257812 4.128906 11.277344 4.121094 11.285156 4.113281 C 11.289062 4.105469 11.328125 4.078125 11.367188 4.058594 C 11.703125 3.890625 11.984375 3.742188 12.078125 3.6875 C 12.113281 3.667969 12.144531 3.652344 12.15625 3.648438 C 12.167969 3.644531 12.1875 3.632812 12.203125 3.628906 C 12.21875 3.625 12.257812 3.601562 12.289062 3.582031 C 12.320312 3.5625 12.394531 3.523438 12.457031 3.492188 C 12.519531 3.460938 12.613281 3.414062 12.664062 3.382812 C 12.761719 3.332031 12.957031 3.226562 13.15625 3.125 C 13.21875 3.09375 13.277344 3.058594 13.289062 3.050781 C 13.296875 3.039062 13.320312 3.03125 13.332031 3.03125 C 13.347656 3.03125 13.375 3.023438 13.390625 3.007812 C 13.40625 2.992188 13.503906 2.9375 13.609375 2.886719 C 13.710938 2.832031 13.820312 2.777344 13.851562 2.757812 C 13.886719 2.738281 13.957031 2.703125 14.007812 2.679688 C 14.058594 2.652344 14.179688 2.589844 14.269531 2.539062 C 14.363281 2.488281 14.484375 2.425781 14.535156 2.402344 C 14.585938 2.375 14.679688 2.324219 14.742188 2.292969 C 14.929688 2.1875 14.925781 2.183594 14.917969 2.523438 Z M 1.359375 2.925781 C 1.417969 2.945312 1.484375 2.96875 1.511719 2.976562 C 1.539062 2.988281 1.605469 3.011719 1.664062 3.03125 C 1.71875 3.054688 1.792969 3.082031 1.828125 3.089844 C 1.859375 3.097656 1.894531 3.117188 1.898438 3.125 C 1.90625 3.136719 1.925781 3.144531 1.945312 3.144531 C 1.964844 3.144531 2.003906 3.152344 2.035156 3.167969 C 2.0625 3.183594 2.125 3.207031 2.167969 3.222656 C 2.210938 3.238281 2.28125 3.261719 2.320312 3.277344 C 2.441406 3.320312 2.539062 3.355469 2.617188 3.386719 C 2.65625 3.402344 2.769531 3.441406 2.863281 3.476562 C 3.113281 3.570312 3.4375 3.6875 3.523438 3.722656 C 3.5625 3.738281 3.628906 3.761719 3.664062 3.773438 C 3.699219 3.785156 3.765625 3.808594 3.804688 3.824219 C 3.945312 3.878906 4.222656 3.980469 4.355469 4.027344 C 4.425781 4.054688 4.519531 4.089844 4.558594 4.105469 C 4.59375 4.117188 4.660156 4.140625 4.699219 4.15625 C 4.886719 4.222656 4.941406 4.246094 4.992188 4.269531 C 5.023438 4.28125 5.058594 4.292969 5.078125 4.292969 C 5.09375 4.292969 5.125 4.308594 5.144531 4.320312 C 5.167969 4.335938 5.203125 4.347656 5.226562 4.347656 C 5.246094 4.347656 5.277344 4.363281 5.289062 4.375 C 5.300781 4.390625 5.335938 4.402344 5.363281 4.402344 C 5.390625 4.402344 5.425781 4.410156 5.441406 4.421875 C 5.460938 4.4375 5.460938 4.441406 5.433594 4.449219 C 5.390625 4.464844 5.359375 4.460938 4.808594 4.320312 C 4.757812 4.308594 4.652344 4.28125 4.582031 4.265625 C 4.507812 4.25 4.421875 4.226562 4.382812 4.21875 C 4.347656 4.207031 4.265625 4.1875 4.203125 4.171875 C 4.140625 4.160156 4.058594 4.136719 4.023438 4.132812 C 3.988281 4.121094 3.898438 4.101562 3.824219 4.085938 C 3.753906 4.070312 3.625 4.042969 3.542969 4.019531 C 3.457031 3.996094 3.359375 3.972656 3.324219 3.964844 C 3.171875 3.929688 3.003906 3.890625 2.863281 3.855469 C 2.777344 3.832031 2.675781 3.808594 2.636719 3.800781 C 2.59375 3.792969 2.507812 3.769531 2.445312 3.757812 C 2.382812 3.742188 2.273438 3.714844 2.199219 3.699219 C 2.128906 3.683594 2.050781 3.660156 2.023438 3.652344 C 2 3.644531 1.960938 3.636719 1.941406 3.636719 C 1.917969 3.636719 1.867188 3.625 1.824219 3.609375 C 1.738281 3.582031 1.621094 3.554688 1.445312 3.515625 C 1.382812 3.503906 1.308594 3.484375 1.277344 3.472656 L 1.226562 3.453125 L 1.226562 3.171875 C 1.226562 3.015625 1.234375 2.886719 1.242188 2.886719 C 1.25 2.886719 1.304688 2.902344 1.359375 2.925781 Z M 15.757812 3 C 15.761719 3.054688 15.765625 3.175781 15.765625 3.269531 L 15.761719 3.445312 L 15.695312 3.476562 C 15.660156 3.492188 15.59375 3.511719 15.546875 3.515625 C 15.5 3.523438 15.441406 3.539062 15.414062 3.546875 C 15.386719 3.558594 15.3125 3.578125 15.242188 3.59375 C 15.175781 3.609375 15.085938 3.625 15.046875 3.636719 C 15.003906 3.644531 14.921875 3.660156 14.867188 3.675781 C 14.808594 3.683594 14.746094 3.703125 14.722656 3.710938 C 14.703125 3.722656 14.628906 3.742188 14.5625 3.757812 C 14.496094 3.769531 14.40625 3.792969 14.363281 3.800781 C 14.128906 3.851562 14.054688 3.871094 13.996094 3.886719 C 13.914062 3.910156 13.71875 3.957031 13.515625 4 C 13.464844 4.011719 13.378906 4.03125 13.324219 4.046875 C 13.199219 4.082031 13.078125 4.109375 12.984375 4.128906 C 12.945312 4.136719 12.84375 4.164062 12.757812 4.183594 C 12.675781 4.207031 12.570312 4.230469 12.523438 4.238281 C 12.476562 4.246094 12.414062 4.261719 12.386719 4.273438 C 12.355469 4.285156 12.308594 4.292969 12.277344 4.292969 C 12.246094 4.292969 12.21875 4.300781 12.214844 4.308594 C 12.207031 4.320312 12.171875 4.332031 12.132812 4.335938 C 12.09375 4.34375 12.019531 4.363281 11.964844 4.375 C 11.636719 4.464844 11.550781 4.476562 11.5625 4.433594 C 11.570312 4.421875 11.589844 4.410156 11.609375 4.40625 C 11.628906 4.402344 11.671875 4.390625 11.703125 4.375 C 11.734375 4.363281 11.792969 4.339844 11.839844 4.324219 C 11.882812 4.308594 11.953125 4.28125 11.996094 4.265625 C 12.035156 4.25 12.101562 4.226562 12.140625 4.214844 C 12.179688 4.199219 12.25 4.171875 12.296875 4.15625 C 12.34375 4.140625 12.410156 4.113281 12.449219 4.101562 C 12.484375 4.089844 12.578125 4.054688 12.65625 4.023438 C 12.734375 3.996094 12.867188 3.941406 12.957031 3.910156 C 13.148438 3.84375 13.222656 3.816406 13.324219 3.777344 C 13.402344 3.746094 13.660156 3.65625 13.796875 3.601562 C 13.871094 3.578125 13.90625 3.5625 14.058594 3.5 C 14.097656 3.484375 14.140625 3.472656 14.15625 3.472656 C 14.171875 3.472656 14.207031 3.457031 14.242188 3.445312 C 14.273438 3.429688 14.324219 3.402344 14.359375 3.390625 C 14.390625 3.375 14.425781 3.363281 14.441406 3.363281 C 14.457031 3.363281 14.496094 3.351562 14.53125 3.335938 C 14.5625 3.320312 14.640625 3.292969 14.695312 3.269531 C 14.753906 3.25 14.816406 3.226562 14.835938 3.21875 C 14.886719 3.199219 15.023438 3.144531 15.117188 3.113281 C 15.15625 3.097656 15.222656 3.074219 15.269531 3.058594 C 15.3125 3.042969 15.378906 3.019531 15.414062 3.003906 C 15.449219 2.992188 15.523438 2.964844 15.574219 2.945312 C 15.726562 2.882812 15.746094 2.890625 15.757812 3 Z M 0.671875 3.671875 C 0.722656 3.683594 0.796875 3.703125 0.832031 3.710938 C 0.894531 3.734375 1.035156 3.765625 1.199219 3.800781 C 1.242188 3.808594 1.34375 3.832031 1.425781 3.855469 C 1.621094 3.90625 1.785156 3.945312 1.878906 3.964844 C 1.921875 3.972656 2.023438 3.996094 2.105469 4.019531 C 2.1875 4.042969 2.292969 4.066406 2.332031 4.074219 C 2.46875 4.101562 2.722656 4.164062 2.910156 4.210938 C 2.957031 4.222656 3.0625 4.25 3.144531 4.265625 C 3.226562 4.285156 3.328125 4.308594 3.367188 4.324219 C 3.40625 4.335938 3.453125 4.347656 3.476562 4.347656 C 3.496094 4.347656 3.550781 4.359375 3.59375 4.375 C 3.636719 4.386719 3.742188 4.414062 3.824219 4.429688 C 3.90625 4.449219 4 4.472656 4.027344 4.480469 C 4.058594 4.492188 4.136719 4.511719 4.207031 4.527344 C 4.277344 4.539062 4.363281 4.558594 4.402344 4.566406 C 4.4375 4.578125 4.519531 4.597656 4.582031 4.613281 C 4.730469 4.648438 4.863281 4.675781 4.976562 4.707031 C 5.03125 4.71875 5.132812 4.742188 5.203125 4.761719 C 5.277344 4.777344 5.363281 4.796875 5.398438 4.808594 C 5.480469 4.832031 5.726562 4.890625 5.972656 4.9375 C 6.039062 4.953125 6.105469 4.96875 6.117188 4.980469 C 6.144531 4.992188 6.292969 5.027344 6.460938 5.0625 C 6.601562 5.089844 6.78125 5.128906 6.816406 5.144531 C 6.84375 5.15625 6.980469 5.1875 7.148438 5.226562 C 7.191406 5.234375 7.292969 5.257812 7.375 5.28125 C 7.550781 5.324219 7.738281 5.367188 7.847656 5.390625 C 7.890625 5.398438 7.988281 5.425781 8.066406 5.445312 C 8.144531 5.46875 8.234375 5.492188 8.265625 5.496094 L 8.320312 5.511719 L 8.320312 10.421875 C 8.320312 13.667969 8.316406 15.34375 8.300781 15.359375 C 8.285156 15.382812 8.265625 15.382812 8.179688 15.355469 C 8.121094 15.339844 8.039062 15.320312 8 15.3125 C 7.886719 15.292969 7.746094 15.257812 7.648438 15.226562 C 7.601562 15.214844 7.527344 15.199219 7.484375 15.191406 C 7.441406 15.183594 7.398438 15.171875 7.394531 15.164062 C 7.386719 15.15625 7.359375 15.148438 7.328125 15.148438 C 7.296875 15.148438 7.25 15.136719 7.222656 15.128906 C 7.191406 15.117188 7.128906 15.101562 7.082031 15.09375 C 7.035156 15.082031 6.949219 15.0625 6.886719 15.050781 C 6.777344 15.027344 6.722656 15.011719 6.527344 14.960938 C 6.484375 14.949219 6.417969 14.933594 6.375 14.925781 C 6.332031 14.917969 6.261719 14.902344 6.214844 14.890625 C 6.128906 14.867188 6.039062 14.847656 5.816406 14.789062 C 5.75 14.773438 5.652344 14.75 5.601562 14.734375 C 5.550781 14.722656 5.464844 14.703125 5.414062 14.699219 C 5.367188 14.691406 5.320312 14.679688 5.316406 14.671875 C 5.308594 14.660156 5.285156 14.652344 5.265625 14.652344 C 5.210938 14.652344 4.980469 14.601562 4.890625 14.570312 C 4.855469 14.558594 4.792969 14.542969 4.75 14.535156 C 4.710938 14.53125 4.652344 14.515625 4.628906 14.507812 C 4.601562 14.5 4.511719 14.476562 4.429688 14.460938 C 4.347656 14.445312 4.25 14.421875 4.210938 14.40625 C 4.175781 14.394531 4.097656 14.375 4.042969 14.363281 C 3.832031 14.320312 3.570312 14.257812 3.492188 14.238281 C 3.457031 14.226562 3.371094 14.203125 3.296875 14.1875 C 3.222656 14.171875 3.121094 14.148438 3.070312 14.136719 C 2.914062 14.09375 2.789062 14.066406 2.71875 14.050781 C 2.605469 14.027344 2.46875 13.996094 2.398438 13.972656 C 2.363281 13.964844 2.28125 13.941406 2.21875 13.929688 C 2.15625 13.914062 2.074219 13.894531 2.039062 13.886719 C 2.003906 13.878906 1.917969 13.859375 1.851562 13.84375 C 1.730469 13.816406 1.664062 13.796875 1.464844 13.746094 C 1.414062 13.734375 1.304688 13.710938 1.226562 13.695312 C 1.09375 13.667969 1.035156 13.652344 0.792969 13.585938 C 0.734375 13.570312 0.675781 13.558594 0.664062 13.558594 C 0.648438 13.558594 0.59375 13.542969 0.535156 13.527344 L 0.433594 13.5 L 0.433594 3.632812 L 0.507812 3.640625 C 0.542969 3.648438 0.621094 3.660156 0.671875 3.671875 Z M 16.566406 3.65625 C 16.570312 3.671875 16.574219 5.890625 16.570312 8.589844 L 16.566406 13.503906 L 16.511719 13.515625 C 16.484375 13.519531 16.441406 13.53125 16.414062 13.539062 C 16.386719 13.546875 16.300781 13.570312 16.214844 13.585938 C 16.132812 13.601562 16.046875 13.625 16.023438 13.632812 C 16 13.640625 15.917969 13.660156 15.84375 13.679688 C 15.671875 13.714844 15.613281 13.730469 15.421875 13.777344 C 15.339844 13.796875 15.234375 13.824219 15.1875 13.832031 C 15.140625 13.839844 15.078125 13.855469 15.046875 13.867188 C 15.019531 13.878906 14.972656 13.886719 14.941406 13.886719 C 14.910156 13.886719 14.882812 13.894531 14.875 13.902344 C 14.871094 13.910156 14.828125 13.925781 14.785156 13.933594 C 14.742188 13.9375 14.667969 13.953125 14.621094 13.96875 C 14.523438 13.996094 14.382812 14.03125 14.269531 14.054688 C 14.230469 14.058594 14.128906 14.085938 14.054688 14.105469 C 13.902344 14.148438 13.84375 14.160156 13.628906 14.203125 C 13.554688 14.21875 13.464844 14.238281 13.429688 14.25 C 13.394531 14.257812 13.308594 14.28125 13.242188 14.296875 C 13.171875 14.3125 13.074219 14.339844 13.023438 14.355469 C 12.96875 14.367188 12.910156 14.378906 12.890625 14.378906 C 12.875 14.378906 12.820312 14.394531 12.769531 14.40625 C 12.6875 14.429688 12.566406 14.460938 12.335938 14.515625 C 12.277344 14.53125 12.1875 14.550781 12.136719 14.5625 C 12.085938 14.574219 12.011719 14.589844 11.976562 14.597656 C 11.84375 14.625 11.679688 14.667969 11.417969 14.738281 C 11.332031 14.761719 11.253906 14.777344 11.058594 14.816406 C 10.96875 14.835938 10.847656 14.867188 10.71875 14.902344 C 10.589844 14.933594 10.425781 14.976562 10.265625 15.011719 C 10.195312 15.027344 10.09375 15.050781 10.039062 15.066406 C 9.988281 15.078125 9.878906 15.101562 9.804688 15.121094 C 9.726562 15.136719 9.617188 15.160156 9.5625 15.175781 C 9.222656 15.265625 9.117188 15.289062 9 15.3125 C 8.960938 15.320312 8.882812 15.339844 8.832031 15.355469 C 8.78125 15.367188 8.722656 15.375 8.703125 15.371094 C 8.671875 15.363281 8.671875 15.15625 8.671875 10.4375 L 8.679688 5.511719 L 8.785156 5.480469 C 8.839844 5.464844 8.925781 5.445312 8.96875 5.4375 C 9.015625 5.433594 9.058594 5.421875 9.070312 5.414062 C 9.082031 5.410156 9.125 5.394531 9.160156 5.386719 C 9.253906 5.371094 9.445312 5.324219 9.625 5.28125 C 9.855469 5.222656 10.015625 5.183594 10.078125 5.175781 C 10.109375 5.171875 10.152344 5.160156 10.171875 5.152344 C 10.191406 5.140625 10.246094 5.128906 10.292969 5.117188 C 10.339844 5.109375 10.472656 5.078125 10.585938 5.050781 C 10.785156 5.003906 10.867188 4.984375 11.070312 4.929688 C 11.117188 4.917969 11.1875 4.902344 11.230469 4.894531 C 11.34375 4.875 11.644531 4.800781 11.789062 4.757812 C 11.839844 4.742188 11.890625 4.730469 11.910156 4.730469 C 11.925781 4.730469 11.980469 4.722656 12.027344 4.707031 C 12.1875 4.660156 12.484375 4.589844 12.597656 4.566406 C 12.644531 4.5625 12.75 4.535156 12.824219 4.515625 C 12.902344 4.496094 13.027344 4.464844 13.097656 4.449219 C 13.359375 4.390625 13.472656 4.363281 13.628906 4.320312 C 13.679688 4.308594 13.785156 4.28125 13.855469 4.265625 C 13.929688 4.25 14.011719 4.230469 14.042969 4.222656 C 14.074219 4.210938 14.179688 4.1875 14.269531 4.164062 C 14.363281 4.144531 14.527344 4.105469 14.628906 4.078125 C 14.734375 4.054688 14.871094 4.023438 14.933594 4.007812 C 14.992188 3.992188 15.074219 3.972656 15.109375 3.964844 C 15.148438 3.957031 15.230469 3.9375 15.300781 3.921875 C 15.367188 3.910156 15.4375 3.890625 15.453125 3.882812 C 15.484375 3.871094 15.589844 3.847656 15.800781 3.800781 C 16.054688 3.746094 16.398438 3.660156 16.410156 3.648438 C 16.429688 3.625 16.5625 3.636719 16.566406 3.65625 Z M 16.566406 3.65625 " />
                                <path
                                    style=" stroke:currentColor;fill-rule:nonzero;fill:rgb(100%,100%,100%);fill-opacity:1;"
                                    d="M 14.46875 10.726562 C 14.449219 10.734375 14.390625 10.75 14.335938 10.761719 C 14.214844 10.78125 13.855469 10.863281 13.726562 10.902344 C 13.675781 10.914062 13.617188 10.925781 13.601562 10.925781 C 13.582031 10.925781 13.53125 10.9375 13.484375 10.953125 C 13.4375 10.964844 13.332031 10.992188 13.25 11.007812 C 13.167969 11.027344 13.074219 11.050781 13.039062 11.058594 C 13.007812 11.066406 12.9375 11.082031 12.890625 11.089844 C 12.839844 11.097656 12.773438 11.113281 12.742188 11.125 C 12.710938 11.136719 12.617188 11.15625 12.53125 11.171875 C 12.449219 11.191406 12.351562 11.210938 12.316406 11.222656 C 12.28125 11.234375 12.214844 11.25 12.175781 11.257812 C 12.132812 11.265625 12.0625 11.28125 12.011719 11.292969 C 11.886719 11.324219 11.734375 11.359375 11.578125 11.390625 C 11.5 11.40625 11.394531 11.433594 11.34375 11.445312 C 11.292969 11.460938 11.179688 11.484375 11.097656 11.503906 C 10.886719 11.546875 10.820312 11.574219 10.761719 11.660156 L 10.707031 11.730469 L 10.707031 13.632812 L 10.757812 13.695312 C 10.816406 13.773438 10.945312 13.839844 11 13.824219 C 11.132812 13.78125 11.382812 13.722656 11.605469 13.679688 C 11.679688 13.664062 11.769531 13.644531 11.804688 13.632812 C 11.949219 13.59375 12.046875 13.570312 12.117188 13.554688 C 12.273438 13.527344 12.441406 13.488281 12.496094 13.46875 C 12.527344 13.460938 12.621094 13.4375 12.703125 13.421875 C 12.785156 13.402344 12.898438 13.378906 12.949219 13.367188 C 13 13.351562 13.160156 13.316406 13.308594 13.285156 C 13.453125 13.253906 13.613281 13.214844 13.664062 13.199219 C 13.714844 13.183594 13.769531 13.175781 13.785156 13.175781 C 13.804688 13.175781 13.855469 13.164062 13.902344 13.148438 C 13.949219 13.132812 14.054688 13.109375 14.136719 13.089844 C 14.222656 13.074219 14.332031 13.050781 14.382812 13.035156 C 14.4375 13.023438 14.523438 13.003906 14.574219 12.992188 C 14.710938 12.960938 14.804688 12.894531 14.828125 12.8125 C 14.84375 12.765625 14.847656 12.445312 14.84375 11.796875 L 14.835938 10.851562 L 14.753906 10.777344 C 14.683594 10.714844 14.660156 10.707031 14.585938 10.707031 C 14.535156 10.707031 14.484375 10.714844 14.46875 10.726562 Z M 14.484375 11.09375 C 14.511719 11.121094 14.515625 11.316406 14.488281 11.363281 C 14.476562 11.386719 14.4375 11.40625 14.398438 11.410156 C 14.359375 11.417969 14.304688 11.429688 14.28125 11.441406 C 14.253906 11.449219 14.195312 11.46875 14.148438 11.476562 C 14.023438 11.496094 13.710938 11.566406 13.503906 11.621094 C 13.46875 11.628906 13.375 11.652344 13.296875 11.667969 C 13.21875 11.683594 13.117188 11.707031 13.070312 11.722656 C 13.023438 11.738281 12.96875 11.75 12.945312 11.75 C 12.921875 11.75 12.863281 11.757812 12.820312 11.773438 C 12.777344 11.785156 12.671875 11.8125 12.589844 11.832031 C 12.507812 11.847656 12.402344 11.871094 12.351562 11.886719 C 12.304688 11.898438 12.199219 11.925781 12.117188 11.941406 C 12.035156 11.957031 11.929688 11.984375 11.886719 11.996094 C 11.839844 12.011719 11.785156 12.023438 11.765625 12.023438 C 11.742188 12.023438 11.6875 12.035156 11.636719 12.046875 C 11.492188 12.09375 11.257812 12.144531 11.121094 12.164062 L 11.046875 12.171875 L 11.054688 12.019531 L 11.058594 11.867188 L 11.136719 11.84375 C 11.175781 11.828125 11.246094 11.8125 11.285156 11.800781 C 11.328125 11.792969 11.4375 11.769531 11.53125 11.75 C 11.625 11.726562 11.730469 11.703125 11.769531 11.695312 C 11.882812 11.671875 12.097656 11.617188 12.269531 11.574219 C 12.332031 11.558594 12.417969 11.539062 12.464844 11.53125 C 12.566406 11.511719 12.703125 11.480469 12.835938 11.445312 C 13.0625 11.390625 13.121094 11.378906 13.195312 11.363281 C 13.304688 11.34375 13.632812 11.265625 13.773438 11.226562 C 13.824219 11.210938 13.886719 11.199219 13.910156 11.199219 C 13.9375 11.199219 13.976562 11.191406 13.996094 11.183594 C 14.011719 11.171875 14.074219 11.15625 14.128906 11.148438 C 14.1875 11.136719 14.28125 11.117188 14.335938 11.101562 C 14.46875 11.070312 14.457031 11.070312 14.484375 11.09375 Z M 14.503906 11.859375 C 14.507812 11.984375 14.480469 12.023438 14.382812 12.023438 C 14.34375 12.023438 14.296875 12.03125 14.277344 12.042969 C 14.238281 12.0625 14.09375 12.097656 13.921875 12.132812 C 13.796875 12.15625 13.660156 12.1875 13.554688 12.214844 C 13.5 12.230469 13.394531 12.253906 13.316406 12.269531 C 13.238281 12.289062 13.132812 12.3125 13.082031 12.324219 C 12.851562 12.382812 12.644531 12.425781 12.476562 12.464844 C 12.320312 12.496094 12.171875 12.53125 12.105469 12.550781 C 12.070312 12.558594 11.972656 12.582031 11.890625 12.597656 C 11.808594 12.613281 11.699219 12.640625 11.644531 12.652344 C 11.453125 12.703125 11.378906 12.71875 11.277344 12.738281 C 11.222656 12.746094 11.160156 12.761719 11.140625 12.773438 C 11.125 12.78125 11.09375 12.785156 11.078125 12.777344 C 11.035156 12.761719 11.042969 12.554688 11.085938 12.53125 C 11.125 12.515625 11.285156 12.472656 11.476562 12.433594 C 11.558594 12.414062 11.660156 12.390625 11.699219 12.378906 C 11.734375 12.363281 11.789062 12.351562 11.8125 12.351562 C 11.835938 12.351562 11.898438 12.339844 11.949219 12.324219 C 12 12.3125 12.109375 12.285156 12.191406 12.269531 C 12.277344 12.25 12.378906 12.226562 12.417969 12.210938 C 12.460938 12.199219 12.515625 12.1875 12.535156 12.1875 C 12.554688 12.1875 12.609375 12.175781 12.65625 12.160156 C 12.703125 12.148438 12.808594 12.125 12.890625 12.105469 C 12.976562 12.089844 13.074219 12.066406 13.109375 12.054688 C 13.183594 12.035156 13.382812 11.988281 13.488281 11.972656 C 13.523438 11.96875 13.5625 11.957031 13.570312 11.949219 C 13.582031 11.941406 13.632812 11.929688 13.683594 11.921875 C 13.738281 11.914062 13.808594 11.898438 13.84375 11.882812 C 13.878906 11.871094 13.929688 11.859375 13.957031 11.859375 C 14 11.859375 14.082031 11.839844 14.289062 11.777344 C 14.34375 11.761719 14.410156 11.753906 14.441406 11.753906 C 14.496094 11.757812 14.496094 11.761719 14.503906 11.859375 Z M 14.503906 12.484375 C 14.507812 12.609375 14.488281 12.679688 14.441406 12.679688 C 14.425781 12.679688 14.375 12.691406 14.324219 12.707031 C 14.273438 12.722656 14.164062 12.746094 14.082031 12.761719 C 14 12.777344 13.890625 12.804688 13.839844 12.820312 C 13.789062 12.835938 13.734375 12.84375 13.722656 12.84375 C 13.710938 12.84375 13.65625 12.855469 13.609375 12.871094 C 13.554688 12.886719 13.445312 12.910156 13.363281 12.925781 C 13.28125 12.945312 13.171875 12.96875 13.121094 12.984375 C 13.070312 13 13.019531 13.007812 13.003906 13.007812 C 12.992188 13.007812 12.9375 13.019531 12.890625 13.035156 C 12.839844 13.050781 12.730469 13.074219 12.644531 13.089844 C 12.5625 13.109375 12.464844 13.132812 12.429688 13.140625 C 12.363281 13.160156 12.199219 13.199219 12.0625 13.230469 C 11.863281 13.269531 11.585938 13.332031 11.460938 13.367188 C 11.414062 13.382812 11.359375 13.394531 11.339844 13.394531 C 11.320312 13.394531 11.269531 13.40625 11.230469 13.421875 C 11.1875 13.433594 11.132812 13.445312 11.101562 13.449219 L 11.050781 13.449219 L 11.050781 13.140625 L 11.121094 13.121094 C 11.160156 13.109375 11.234375 13.09375 11.285156 13.082031 C 11.390625 13.058594 11.542969 13.023438 11.707031 12.984375 C 11.765625 12.96875 11.878906 12.945312 11.957031 12.925781 C 12.101562 12.894531 12.21875 12.867188 12.371094 12.828125 C 12.417969 12.816406 12.496094 12.800781 12.542969 12.789062 C 12.679688 12.765625 12.84375 12.726562 13.089844 12.664062 C 13.136719 12.652344 13.210938 12.636719 13.25 12.625 C 13.292969 12.617188 13.382812 12.597656 13.449219 12.582031 C 13.515625 12.566406 13.644531 12.535156 13.730469 12.515625 C 13.925781 12.46875 14 12.453125 14.175781 12.417969 C 14.25 12.402344 14.328125 12.382812 14.355469 12.371094 C 14.382812 12.359375 14.421875 12.355469 14.449219 12.355469 C 14.496094 12.359375 14.496094 12.367188 14.503906 12.484375 Z M 14.503906 12.484375 " />
                            </g>
                        </svg>