<svg xmlns="http://www.w3.org/2000/svg" xmlns:xlink="http://www.w3.org/1999/xlink" width="18px"
                            height="18px" viewBox="0 0 18 18" version="1.1" style="color: white;">
                            <g id="surface1">
                                <path
                                    style=" stroke:currentColor;fill-rule:nonzero;fill:rgb(100%,100%,100%);fill-opacity:1;"
                                    d="M 8.828125 3.519531 C 8.789062 3.539062 8.621094 3.589844 8.410156 3.648438 C 8.34375 3.667969 8.261719 3.695312 8.222656 3.710938 C 8.1875 3.726562 8.140625 3.738281 8.121094 3.738281 C 8.097656 3.738281 8.050781 3.753906 8.015625 3.769531 C 7.980469 3.785156 7.898438 3.808594 7.839844 3.828125 C 7.78125 3.847656 7.644531 3.886719 7.539062 3.917969 C 7.4375 3.949219 7.296875 3.992188 7.230469 4.011719 C 7.164062 4.027344 7.074219 4.054688 7.03125 4.066406 C 6.984375 4.082031 6.898438 4.109375 6.839844 4.125 C 6.78125 4.144531 6.675781 4.179688 6.609375 4.199219 C 6.542969 4.21875 6.382812 4.269531 6.25 4.308594 C 6.117188 4.347656 5.953125 4.394531 5.878906 4.417969 C 5.808594 4.441406 5.699219 4.472656 5.640625 4.492188 C 5.519531 4.527344 5.410156 4.5625 5.292969 4.601562 C 5.21875 4.625 4.488281 4.84375 4.371094 4.878906 C 4.339844 4.890625 4.265625 4.910156 4.210938 4.929688 C 4.15625 4.945312 4.007812 4.988281 3.878906 5.03125 C 3.753906 5.070312 3.601562 5.117188 3.546875 5.132812 C 3.488281 5.144531 3.382812 5.179688 3.316406 5.199219 C 3.246094 5.222656 3.140625 5.257812 3.078125 5.273438 C 3.019531 5.292969 2.933594 5.316406 2.890625 5.332031 C 2.753906 5.375 2.414062 5.476562 2.289062 5.511719 C 2.222656 5.53125 2.136719 5.554688 2.101562 5.570312 C 2.0625 5.585938 1.976562 5.609375 1.910156 5.628906 C 1.84375 5.648438 1.726562 5.6875 1.648438 5.710938 C 1.574219 5.734375 1.378906 5.792969 1.21875 5.839844 C 1.058594 5.886719 0.867188 5.945312 0.792969 5.972656 C 0.714844 5.996094 0.636719 6.019531 0.617188 6.019531 C 0.597656 6.019531 0.550781 6.03125 0.515625 6.046875 C 0.480469 6.0625 0.390625 6.09375 0.320312 6.117188 C 0.25 6.140625 0.160156 6.183594 0.125 6.210938 C -0.0273438 6.328125 -0.0429688 6.585938 0.09375 6.742188 C 0.125 6.777344 0.335938 6.871094 0.621094 6.980469 C 0.714844 7.015625 0.816406 7.054688 0.851562 7.070312 C 0.9375 7.105469 1.691406 7.402344 1.929688 7.492188 C 1.972656 7.511719 2.039062 7.535156 2.070312 7.550781 C 2.105469 7.5625 2.207031 7.605469 2.300781 7.640625 C 2.394531 7.675781 2.539062 7.730469 2.621094 7.765625 C 2.703125 7.796875 2.804688 7.839844 2.851562 7.855469 C 2.894531 7.871094 2.957031 7.894531 2.988281 7.910156 C 3.023438 7.925781 3.085938 7.949219 3.128906 7.964844 C 3.453125 8.089844 3.542969 8.128906 3.558594 8.148438 C 3.570312 8.164062 3.578125 8.742188 3.585938 9.710938 C 3.589844 10.820312 3.597656 11.265625 3.613281 11.300781 C 3.625 11.328125 3.65625 11.398438 3.679688 11.457031 C 3.804688 11.765625 4.0625 12.050781 4.464844 12.316406 C 4.628906 12.429688 5.117188 12.679688 5.164062 12.679688 C 5.179688 12.679688 5.207031 12.691406 5.230469 12.707031 C 5.253906 12.722656 5.289062 12.738281 5.308594 12.746094 C 5.332031 12.753906 5.398438 12.777344 5.460938 12.800781 C 5.644531 12.871094 5.777344 12.910156 6.03125 12.976562 C 6.160156 13.011719 6.308594 13.046875 6.359375 13.058594 C 6.410156 13.070312 6.472656 13.085938 6.5 13.09375 C 6.550781 13.101562 6.757812 13.140625 7.011719 13.191406 C 7.253906 13.234375 7.664062 13.28125 8.269531 13.320312 C 8.65625 13.347656 9.710938 13.335938 10.03125 13.300781 C 10.140625 13.289062 10.355469 13.265625 10.511719 13.246094 C 10.664062 13.230469 10.855469 13.207031 10.929688 13.191406 C 11.101562 13.15625 11.300781 13.121094 11.421875 13.097656 C 11.601562 13.066406 12.152344 12.925781 12.308594 12.871094 C 12.355469 12.855469 12.441406 12.820312 12.5 12.800781 C 12.558594 12.777344 12.628906 12.753906 12.648438 12.746094 C 12.671875 12.738281 12.699219 12.726562 12.710938 12.71875 C 12.722656 12.710938 12.78125 12.683594 12.839844 12.660156 C 13.09375 12.566406 13.503906 12.332031 13.738281 12.140625 C 13.976562 11.953125 14.1875 11.6875 14.28125 11.460938 C 14.304688 11.398438 14.335938 11.328125 14.347656 11.300781 C 14.363281 11.265625 14.371094 10.820312 14.375 9.707031 C 14.378906 8.535156 14.386719 8.15625 14.40625 8.144531 C 14.429688 8.125 14.640625 8.035156 14.828125 7.964844 C 14.875 7.949219 14.9375 7.925781 14.96875 7.910156 C 15.003906 7.894531 15.070312 7.871094 15.121094 7.851562 C 15.171875 7.832031 15.226562 7.808594 15.242188 7.796875 C 15.265625 7.789062 15.300781 7.78125 15.328125 7.78125 C 15.367188 7.78125 15.382812 7.792969 15.390625 7.835938 C 15.394531 7.867188 15.410156 7.921875 15.425781 7.960938 C 15.441406 8.011719 15.449219 8.488281 15.453125 9.644531 L 15.460938 11.261719 L 15.34375 11.371094 C 15.207031 11.496094 15.148438 11.601562 15.117188 11.777344 C 15.097656 11.878906 15.101562 11.925781 15.140625 12.113281 C 15.164062 12.230469 15.203125 12.378906 15.222656 12.441406 C 15.246094 12.5 15.269531 12.574219 15.28125 12.609375 C 15.3125 12.730469 15.492188 13.21875 15.675781 13.691406 C 15.691406 13.734375 15.71875 13.804688 15.734375 13.851562 C 15.804688 14.035156 15.839844 14.046875 15.890625 13.894531 C 15.941406 13.738281 16.058594 13.4375 16.09375 13.375 C 16.105469 13.347656 16.121094 13.304688 16.121094 13.285156 C 16.121094 13.265625 16.128906 13.238281 16.136719 13.226562 C 16.171875 13.195312 16.445312 12.367188 16.480469 12.199219 C 16.488281 12.148438 16.507812 12.078125 16.519531 12.039062 C 16.550781 11.9375 16.542969 11.773438 16.507812 11.6875 C 16.429688 11.511719 16.402344 11.46875 16.296875 11.371094 L 16.183594 11.265625 L 16.175781 9.617188 C 16.167969 7.925781 16.164062 7.871094 16.089844 7.652344 C 16.050781 7.550781 16.050781 7.480469 16.097656 7.464844 C 16.148438 7.449219 16.996094 7.117188 17.109375 7.070312 C 17.144531 7.054688 17.246094 7.015625 17.339844 6.980469 C 17.433594 6.945312 17.539062 6.902344 17.574219 6.886719 C 17.613281 6.871094 17.652344 6.859375 17.664062 6.859375 C 17.71875 6.859375 17.902344 6.714844 17.925781 6.65625 C 17.933594 6.625 17.957031 6.601562 17.972656 6.601562 C 17.992188 6.601562 18 6.570312 18 6.480469 C 18 6.394531 17.992188 6.359375 17.972656 6.359375 C 17.957031 6.359375 17.9375 6.339844 17.925781 6.3125 C 17.890625 6.238281 17.78125 6.164062 17.636719 6.117188 C 17.566406 6.09375 17.480469 6.0625 17.445312 6.046875 C 17.40625 6.03125 17.359375 6.019531 17.339844 6.019531 C 17.3125 6.019531 17.269531 6.007812 17.234375 5.992188 C 17.160156 5.960938 17.125 5.953125 16.738281 5.839844 C 16.578125 5.792969 16.386719 5.734375 16.308594 5.710938 C 16.234375 5.6875 16.117188 5.648438 16.050781 5.628906 C 15.984375 5.609375 15.898438 5.585938 15.859375 5.570312 C 15.820312 5.554688 15.664062 5.507812 15.511719 5.460938 C 15.355469 5.414062 15.1875 5.363281 15.128906 5.347656 C 15.074219 5.332031 15.003906 5.308594 14.96875 5.300781 C 14.9375 5.292969 14.882812 5.273438 14.851562 5.261719 C 14.816406 5.253906 14.695312 5.214844 14.578125 5.179688 C 14.179688 5.0625 13.96875 5 13.910156 4.976562 C 13.878906 4.964844 13.804688 4.945312 13.75 4.929688 C 13.695312 4.910156 13.625 4.890625 13.589844 4.878906 C 13.558594 4.871094 13.335938 4.804688 13.101562 4.730469 C 12.863281 4.65625 12.625 4.585938 12.570312 4.566406 C 12.515625 4.550781 12.445312 4.53125 12.410156 4.519531 C 12.378906 4.511719 12.304688 4.488281 12.25 4.472656 C 12.074219 4.421875 11.738281 4.316406 11.480469 4.238281 C 11.34375 4.195312 11.179688 4.144531 11.121094 4.128906 C 11.058594 4.109375 10.972656 4.082031 10.929688 4.066406 C 10.886719 4.050781 10.765625 4.019531 10.660156 3.988281 C 10.554688 3.960938 10.421875 3.921875 10.359375 3.902344 C 10.300781 3.882812 10.195312 3.851562 10.128906 3.828125 C 10.0625 3.8125 9.976562 3.785156 9.941406 3.769531 C 9.875 3.746094 9.785156 3.71875 9.539062 3.648438 C 9.480469 3.632812 9.394531 3.605469 9.351562 3.589844 C 9.089844 3.503906 8.921875 3.480469 8.828125 3.519531 Z M 9.339844 4.34375 C 9.523438 4.398438 9.699219 4.453125 9.730469 4.460938 C 9.890625 4.507812 9.996094 4.539062 10.050781 4.558594 C 10.113281 4.578125 10.382812 4.660156 10.71875 4.761719 C 10.835938 4.792969 10.957031 4.832031 10.988281 4.84375 C 11.023438 4.855469 11.078125 4.871094 11.109375 4.878906 C 11.144531 4.890625 11.203125 4.90625 11.238281 4.921875 C 11.375 4.964844 11.429688 4.984375 11.488281 5 C 11.59375 5.03125 11.914062 5.125 12.089844 5.179688 C 12.125 5.191406 12.199219 5.210938 12.261719 5.226562 C 12.320312 5.246094 12.386719 5.269531 12.410156 5.277344 C 12.433594 5.289062 12.472656 5.300781 12.5 5.308594 C 12.527344 5.3125 12.597656 5.332031 12.648438 5.347656 C 12.707031 5.363281 12.921875 5.429688 13.128906 5.492188 C 13.339844 5.554688 13.542969 5.617188 13.578125 5.628906 C 13.707031 5.675781 13.964844 5.757812 14.261719 5.839844 C 14.421875 5.886719 14.613281 5.945312 14.6875 5.972656 C 14.765625 5.996094 14.84375 6.019531 14.867188 6.019531 C 14.886719 6.019531 14.929688 6.03125 14.957031 6.046875 C 14.984375 6.0625 15.128906 6.109375 15.269531 6.148438 C 15.414062 6.191406 15.550781 6.230469 15.578125 6.238281 C 15.609375 6.246094 15.683594 6.269531 15.75 6.289062 C 15.816406 6.308594 15.902344 6.335938 15.941406 6.351562 C 16.011719 6.375 16.09375 6.398438 16.335938 6.472656 C 16.402344 6.492188 16.460938 6.519531 16.460938 6.53125 C 16.460938 6.542969 16.382812 6.582031 16.285156 6.617188 C 16.1875 6.652344 16.085938 6.695312 16.050781 6.710938 C 16.019531 6.722656 15.949219 6.753906 15.898438 6.769531 C 15.851562 6.789062 15.792969 6.8125 15.769531 6.820312 C 15.5625 6.90625 15.589844 6.90625 15.410156 6.824219 C 15.132812 6.691406 15.015625 6.664062 14.269531 6.578125 C 14.171875 6.570312 13.992188 6.546875 13.871094 6.53125 C 13.75 6.515625 13.539062 6.488281 13.398438 6.46875 C 13.261719 6.453125 13.089844 6.429688 13.011719 6.417969 C 12.933594 6.40625 12.835938 6.390625 12.789062 6.386719 C 12.675781 6.375 12.269531 6.320312 12.121094 6.300781 C 11.996094 6.28125 11.394531 6.207031 10.988281 6.15625 C 10.890625 6.144531 10.726562 6.125 10.625 6.109375 C 10.523438 6.09375 10.402344 6.078125 10.363281 6.078125 C 10.320312 6.078125 10.257812 6.070312 10.21875 6.058594 C 10.183594 6.046875 10.070312 6.03125 9.96875 6.019531 C 9.871094 6.011719 9.726562 5.992188 9.648438 5.980469 C 8.988281 5.878906 8.914062 5.878906 8.785156 5.988281 C 8.679688 6.078125 8.636719 6.199219 8.660156 6.328125 C 8.699219 6.539062 8.816406 6.605469 9.214844 6.648438 C 9.367188 6.664062 9.5625 6.695312 9.648438 6.710938 C 9.738281 6.726562 9.851562 6.738281 9.898438 6.738281 C 9.949219 6.742188 10.046875 6.753906 10.121094 6.769531 C 10.191406 6.785156 10.289062 6.796875 10.339844 6.800781 C 10.390625 6.800781 10.488281 6.8125 10.558594 6.828125 C 10.632812 6.84375 10.796875 6.867188 10.929688 6.878906 C 11.0625 6.890625 11.289062 6.921875 11.429688 6.941406 C 11.574219 6.960938 11.824219 6.992188 11.988281 7.011719 C 12.15625 7.027344 12.335938 7.050781 12.390625 7.0625 C 12.503906 7.085938 12.878906 7.132812 13.148438 7.160156 C 13.25 7.171875 13.367188 7.1875 13.410156 7.199219 C 13.453125 7.210938 13.535156 7.21875 13.589844 7.21875 C 13.644531 7.21875 13.71875 7.226562 13.753906 7.238281 C 13.789062 7.246094 13.925781 7.269531 14.054688 7.28125 C 14.28125 7.304688 14.359375 7.324219 14.359375 7.355469 C 14.359375 7.363281 14.273438 7.40625 14.164062 7.445312 C 14.058594 7.488281 13.945312 7.535156 13.910156 7.546875 C 13.847656 7.578125 13.847656 7.578125 13.371094 7.761719 C 13.195312 7.828125 13.023438 7.894531 12.988281 7.910156 C 12.957031 7.925781 12.890625 7.953125 12.839844 7.96875 C 12.789062 7.988281 12.730469 8.011719 12.710938 8.023438 C 12.6875 8.03125 12.578125 8.070312 12.46875 8.109375 C 12.285156 8.179688 12.054688 8.269531 11.910156 8.328125 C 11.859375 8.355469 11.523438 8.484375 11.296875 8.570312 C 11.253906 8.589844 11.183594 8.613281 11.136719 8.632812 C 11.089844 8.648438 11.03125 8.671875 11.011719 8.683594 C 10.832031 8.757812 10.695312 8.808594 10.570312 8.855469 C 10.410156 8.910156 10.3125 8.953125 10.234375 8.992188 C 10.207031 9.007812 10.171875 9.019531 10.152344 9.019531 C 10.136719 9.019531 10.097656 9.03125 10.066406 9.046875 C 10.035156 9.0625 9.972656 9.089844 9.929688 9.109375 C 9.636719 9.21875 9.476562 9.28125 9.246094 9.371094 L 8.980469 9.476562 L 8.777344 9.394531 C 8.503906 9.289062 8.128906 9.144531 8.03125 9.105469 C 7.984375 9.089844 7.925781 9.0625 7.890625 9.050781 C 7.859375 9.035156 7.792969 9.011719 7.75 8.992188 C 7.707031 8.976562 7.613281 8.941406 7.539062 8.910156 C 7.46875 8.882812 7.324219 8.828125 7.21875 8.789062 C 7.117188 8.75 7.003906 8.707031 6.96875 8.691406 C 6.9375 8.679688 6.871094 8.648438 6.824219 8.632812 C 6.777344 8.613281 6.707031 8.589844 6.664062 8.570312 C 6.625 8.554688 6.503906 8.511719 6.398438 8.46875 C 6.296875 8.429688 6.191406 8.390625 6.171875 8.378906 C 5.992188 8.300781 5.683594 8.179688 5.488281 8.109375 C 5.378906 8.070312 5.273438 8.03125 5.25 8.023438 C 5.226562 8.011719 5.171875 7.988281 5.121094 7.96875 C 5.070312 7.953125 5.003906 7.925781 4.96875 7.910156 C 4.9375 7.894531 4.765625 7.828125 4.589844 7.761719 C 4.117188 7.578125 4.113281 7.578125 4.050781 7.546875 C 4.019531 7.535156 3.882812 7.480469 3.75 7.429688 C 3.617188 7.378906 3.410156 7.296875 3.289062 7.246094 C 3.164062 7.199219 3.058594 7.160156 3.050781 7.160156 C 3.042969 7.160156 2.988281 7.136719 2.929688 7.113281 C 2.875 7.085938 2.792969 7.050781 2.746094 7.035156 C 2.527344 6.953125 2.265625 6.855469 2.210938 6.832031 C 2.179688 6.816406 2.109375 6.789062 2.058594 6.769531 C 2.011719 6.753906 1.945312 6.722656 1.910156 6.710938 C 1.878906 6.695312 1.773438 6.652344 1.675781 6.617188 C 1.578125 6.582031 1.5 6.542969 1.5 6.53125 C 1.5 6.519531 1.554688 6.492188 1.625 6.472656 C 1.695312 6.453125 1.78125 6.425781 1.816406 6.40625 C 1.851562 6.390625 1.898438 6.378906 1.921875 6.378906 C 1.941406 6.378906 1.988281 6.367188 2.023438 6.351562 C 2.058594 6.335938 2.140625 6.308594 2.199219 6.292969 C 2.261719 6.273438 2.433594 6.222656 2.578125 6.179688 C 2.726562 6.132812 2.878906 6.089844 2.910156 6.085938 C 2.945312 6.078125 2.988281 6.0625 3.011719 6.046875 C 3.03125 6.03125 3.066406 6.019531 3.09375 6.019531 C 3.113281 6.019531 3.195312 5.996094 3.273438 5.972656 C 3.347656 5.945312 3.539062 5.886719 3.699219 5.839844 C 3.992188 5.757812 4.253906 5.675781 4.378906 5.628906 C 4.417969 5.617188 4.621094 5.554688 4.828125 5.492188 C 5.039062 5.429688 5.257812 5.363281 5.308594 5.347656 C 5.367188 5.332031 5.433594 5.3125 5.460938 5.308594 C 5.488281 5.300781 5.539062 5.285156 5.574219 5.269531 C 5.609375 5.253906 5.648438 5.238281 5.667969 5.238281 C 5.683594 5.238281 5.734375 5.226562 5.773438 5.210938 C 5.816406 5.199219 5.902344 5.167969 5.96875 5.148438 C 6.035156 5.128906 6.125 5.101562 6.171875 5.089844 C 6.214844 5.074219 6.304688 5.046875 6.371094 5.03125 C 6.4375 5.011719 6.519531 4.984375 6.554688 4.96875 C 6.59375 4.953125 6.636719 4.941406 6.660156 4.941406 C 6.683594 4.941406 6.726562 4.929688 6.765625 4.910156 C 6.800781 4.894531 6.878906 4.871094 6.941406 4.851562 C 7 4.835938 7.140625 4.792969 7.25 4.761719 C 7.359375 4.726562 7.539062 4.671875 7.648438 4.640625 C 7.761719 4.605469 7.878906 4.570312 7.910156 4.558594 C 7.945312 4.546875 8.003906 4.53125 8.039062 4.519531 C 8.078125 4.511719 8.132812 4.496094 8.160156 4.484375 C 8.1875 4.472656 8.277344 4.445312 8.359375 4.417969 C 8.441406 4.394531 8.605469 4.34375 8.71875 4.308594 C 8.835938 4.273438 8.949219 4.242188 8.96875 4.242188 C 8.992188 4.238281 9.15625 4.285156 9.339844 4.34375 Z M 4.519531 8.507812 C 4.597656 8.539062 4.867188 8.648438 4.988281 8.695312 C 5.035156 8.710938 5.089844 8.730469 5.109375 8.742188 C 5.132812 8.753906 5.214844 8.78125 5.289062 8.8125 C 5.414062 8.859375 5.503906 8.890625 5.761719 8.988281 C 5.796875 9.003906 5.921875 9.050781 6.03125 9.097656 C 6.140625 9.140625 6.316406 9.210938 6.421875 9.25 C 6.523438 9.289062 6.636719 9.335938 6.664062 9.351562 C 6.699219 9.367188 6.734375 9.378906 6.75 9.378906 C 6.765625 9.378906 6.800781 9.390625 6.835938 9.40625 C 6.886719 9.4375 7.128906 9.535156 7.28125 9.589844 C 7.359375 9.621094 7.550781 9.695312 7.609375 9.71875 C 7.667969 9.742188 7.773438 9.785156 8.148438 9.929688 C 8.339844 10.003906 8.507812 10.070312 8.53125 10.078125 C 8.574219 10.097656 8.695312 10.144531 8.816406 10.1875 C 8.921875 10.226562 9.058594 10.226562 9.144531 10.191406 C 9.179688 10.175781 9.292969 10.128906 9.390625 10.09375 C 9.660156 9.988281 10.277344 9.746094 10.351562 9.71875 C 10.410156 9.695312 10.601562 9.621094 10.679688 9.589844 C 10.832031 9.535156 11.070312 9.4375 11.125 9.40625 C 11.15625 9.390625 11.195312 9.378906 11.210938 9.378906 C 11.222656 9.378906 11.261719 9.367188 11.292969 9.351562 C 11.324219 9.335938 11.457031 9.28125 11.589844 9.230469 C 11.722656 9.179688 11.898438 9.109375 11.980469 9.078125 C 12.0625 9.042969 12.160156 9.003906 12.199219 8.988281 C 12.238281 8.972656 12.335938 8.9375 12.410156 8.910156 C 12.738281 8.785156 12.914062 8.714844 12.976562 8.691406 C 13.011719 8.675781 13.050781 8.660156 13.058594 8.660156 C 13.070312 8.660156 13.136719 8.632812 13.207031 8.601562 C 13.277344 8.566406 13.347656 8.539062 13.359375 8.539062 C 13.371094 8.539062 13.429688 8.519531 13.492188 8.488281 C 13.578125 8.453125 13.613281 8.445312 13.632812 8.460938 C 13.65625 8.480469 13.660156 8.699219 13.65625 9.796875 C 13.648438 11.308594 13.664062 11.195312 13.445312 11.425781 C 13.34375 11.535156 13.117188 11.71875 13.09375 11.71875 C 13.085938 11.71875 13.042969 11.746094 12.996094 11.777344 C 12.917969 11.828125 12.722656 11.925781 12.570312 11.992188 C 12.539062 12.007812 12.460938 12.039062 12.398438 12.066406 C 12.289062 12.117188 11.949219 12.222656 11.699219 12.289062 C 11.628906 12.308594 11.523438 12.335938 11.46875 12.351562 C 11.410156 12.367188 11.347656 12.378906 11.320312 12.378906 C 11.292969 12.378906 11.226562 12.394531 11.171875 12.40625 C 10.992188 12.460938 10.542969 12.527344 10.039062 12.574219 C 9.558594 12.621094 8.410156 12.621094 7.921875 12.574219 C 7.421875 12.527344 6.96875 12.460938 6.789062 12.40625 C 6.730469 12.394531 6.664062 12.378906 6.636719 12.378906 C 6.609375 12.378906 6.539062 12.367188 6.488281 12.351562 C 6.433594 12.335938 6.332031 12.308594 6.261719 12.289062 C 6.019531 12.226562 5.589844 12.085938 5.449219 12.023438 C 5.1875 11.902344 5.050781 11.832031 4.964844 11.777344 C 4.914062 11.746094 4.875 11.71875 4.867188 11.71875 C 4.84375 11.71875 4.714844 11.617188 4.574219 11.480469 C 4.472656 11.382812 4.398438 11.292969 4.363281 11.21875 L 4.308594 11.109375 L 4.304688 9.800781 C 4.300781 8.886719 4.304688 8.488281 4.320312 8.46875 C 4.34375 8.441406 4.394531 8.449219 4.519531 8.507812 Z M 4.519531 8.507812 " />
                            </g>
                        </svg>