<svg xmlns="http://www.w3.org/2000/svg" xmlns:xlink="http://www.w3.org/1999/xlink" width="16px"
                            height="18px" viewBox="0 0 16 18" version="1.1" style="color: white;">
                            <g id="surface1">
                                <path
                                    style=" stroke:currentColor;fill-rule:nonzero;fill:rgb(100%,100%,100%);fill-opacity:1;"
                                    d="M 12.910156 1.285156 C 12.847656 1.292969 12.789062 1.304688 12.777344 1.316406 C 12.765625 1.328125 12.746094 1.335938 12.734375 1.335938 C 12.691406 1.335938 12.554688 1.40625 12.445312 1.480469 C 12.347656 1.542969 4.71875 9.070312 4.652344 9.164062 C 4.636719 9.1875 4.621094 9.230469 4.621094 9.253906 C 4.621094 9.28125 4.617188 9.304688 4.609375 9.3125 C 4.59375 9.324219 4.574219 9.425781 4.535156 9.632812 C 4.523438 9.679688 4.507812 9.738281 4.496094 9.761719 C 4.488281 9.789062 4.472656 9.851562 4.464844 9.902344 C 4.4375 10.0625 4.40625 10.210938 4.390625 10.246094 C 4.378906 10.265625 4.367188 10.320312 4.355469 10.371094 C 4.320312 10.558594 4.296875 10.671875 4.285156 10.703125 C 4.277344 10.722656 4.257812 10.789062 4.25 10.84375 C 4.226562 10.957031 4.195312 11.089844 4.152344 11.277344 C 4.136719 11.339844 4.117188 11.433594 4.105469 11.488281 C 4.097656 11.539062 4.078125 11.601562 4.070312 11.621094 C 4.0625 11.640625 4.046875 11.703125 4.039062 11.761719 C 4.027344 11.816406 4.003906 11.917969 3.992188 11.980469 C 3.976562 12.042969 3.953125 12.144531 3.9375 12.207031 C 3.914062 12.316406 3.898438 12.390625 3.835938 12.625 C 3.816406 12.703125 3.792969 12.738281 3.667969 12.863281 C 3.566406 12.96875 3.519531 13.035156 3.496094 13.097656 C 3.464844 13.179688 3.464844 13.191406 3.492188 13.300781 C 3.539062 13.484375 3.664062 13.582031 3.859375 13.582031 C 3.996094 13.582031 4.070312 13.539062 4.230469 13.378906 C 4.355469 13.253906 4.414062 13.21875 4.546875 13.199219 C 4.59375 13.195312 4.691406 13.175781 4.765625 13.15625 C 4.835938 13.136719 4.949219 13.109375 5.011719 13.097656 C 5.078125 13.085938 5.179688 13.0625 5.246094 13.042969 C 5.308594 13.027344 5.417969 13.003906 5.484375 12.992188 C 5.554688 12.980469 5.660156 12.953125 5.722656 12.9375 C 5.789062 12.925781 5.890625 12.898438 5.957031 12.886719 C 6.019531 12.875 6.121094 12.847656 6.1875 12.832031 C 6.332031 12.796875 6.515625 12.757812 6.65625 12.734375 C 6.714844 12.722656 6.773438 12.707031 6.78125 12.703125 C 6.792969 12.695312 6.839844 12.683594 6.890625 12.675781 C 6.9375 12.667969 7.054688 12.644531 7.148438 12.617188 C 7.238281 12.597656 7.355469 12.570312 7.40625 12.5625 C 7.453125 12.550781 7.542969 12.53125 7.601562 12.515625 C 7.660156 12.5 7.757812 12.476562 7.820312 12.464844 C 7.878906 12.453125 7.933594 12.4375 7.941406 12.429688 C 7.949219 12.425781 9.6875 10.703125 11.8125 8.605469 C 13.933594 6.507812 15.6875 4.769531 15.707031 4.746094 C 15.859375 4.5625 15.921875 4.359375 15.921875 4.0625 C 15.917969 3.769531 15.878906 3.636719 15.710938 3.414062 C 15.613281 3.277344 13.863281 1.546875 13.742188 1.464844 C 13.652344 1.40625 13.507812 1.335938 13.472656 1.335938 C 13.457031 1.335938 13.441406 1.328125 13.429688 1.320312 C 13.410156 1.300781 13.164062 1.265625 13.078125 1.269531 C 13.046875 1.269531 12.972656 1.277344 12.910156 1.285156 Z M 13.238281 2.050781 C 13.277344 2.066406 13.617188 2.386719 14.199219 2.957031 C 15.238281 3.984375 15.21875 3.960938 15.152344 4.175781 C 15.125 4.261719 14.953125 4.433594 11.421875 7.933594 C 9.386719 9.945312 7.707031 11.59375 7.699219 11.589844 C 7.65625 11.578125 5.511719 9.4375 5.511719 9.410156 C 5.511719 9.390625 7.164062 7.746094 9.183594 5.75 C 11.207031 3.753906 12.867188 2.109375 12.878906 2.101562 C 12.960938 2.023438 13.121094 2.003906 13.238281 2.050781 Z M 5.332031 9.78125 C 5.375 9.804688 7.34375 11.757812 7.34375 11.773438 C 7.34375 11.800781 7.195312 11.84375 6.90625 11.902344 C 6.839844 11.914062 6.730469 11.9375 6.667969 11.953125 C 6.601562 11.96875 6.503906 11.988281 6.445312 12 C 6.386719 12.011719 6.320312 12.027344 6.300781 12.03125 C 6.242188 12.054688 5.945312 12.121094 5.902344 12.121094 C 5.875 12.121094 5.847656 12.125 5.839844 12.132812 C 5.828125 12.148438 5.742188 12.167969 5.503906 12.214844 C 5.433594 12.230469 5.328125 12.253906 5.261719 12.269531 C 5.199219 12.285156 5.09375 12.304688 5.03125 12.316406 C 4.96875 12.328125 4.902344 12.34375 4.886719 12.351562 C 4.871094 12.359375 4.824219 12.371094 4.785156 12.378906 C 4.691406 12.390625 4.679688 12.367188 4.71875 12.214844 C 4.734375 12.148438 4.753906 12.054688 4.765625 12.007812 C 4.796875 11.84375 4.839844 11.671875 4.855469 11.628906 C 4.863281 11.605469 4.878906 11.542969 4.890625 11.496094 C 4.914062 11.363281 4.953125 11.175781 4.988281 11.046875 C 5 10.984375 5.027344 10.882812 5.039062 10.820312 C 5.054688 10.753906 5.089844 10.597656 5.121094 10.46875 C 5.152344 10.335938 5.199219 10.125 5.226562 10 C 5.253906 9.875 5.277344 9.769531 5.277344 9.765625 C 5.28125 9.757812 5.308594 9.765625 5.332031 9.78125 Z M 5.332031 9.78125 " />
                                <path
                                    style=" stroke:currentColor;fill-rule:nonzero;fill:rgb(100%,100%,100%);fill-opacity:1;"
                                    d="M 13.941406 3.835938 C 13.90625 3.855469 12.769531 4.972656 11.410156 6.316406 L 8.941406 8.757812 L 8.941406 8.835938 C 8.941406 8.902344 8.949219 8.921875 8.996094 8.960938 C 9.070312 9.019531 9.113281 9.03125 9.175781 9.003906 C 9.207031 8.992188 10.269531 7.957031 11.714844 6.527344 C 13.671875 4.589844 14.203125 4.058594 14.210938 4.015625 C 14.230469 3.9375 14.179688 3.84375 14.113281 3.820312 C 14.035156 3.792969 14.007812 3.792969 13.941406 3.835938 Z M 13.941406 3.835938 " />
                                <path
                                    style=" stroke:currentColor;fill-rule:nonzero;fill:rgb(100%,100%,100%);fill-opacity:1;"
                                    d="M 8.238281 9.449219 C 8.183594 9.480469 7.859375 9.800781 7.828125 9.855469 C 7.796875 9.917969 7.796875 9.945312 7.832031 10.019531 C 7.871094 10.097656 7.96875 10.132812 8.050781 10.097656 C 8.082031 10.085938 8.195312 9.988281 8.300781 9.875 C 8.484375 9.691406 8.496094 9.671875 8.496094 9.605469 C 8.496094 9.550781 8.488281 9.53125 8.433594 9.484375 C 8.363281 9.425781 8.300781 9.417969 8.238281 9.449219 Z M 8.238281 9.449219 " />
                                <path
                                    style=" stroke:currentColor;fill-rule:nonzero;fill:rgb(100%,100%,100%);fill-opacity:1;"
                                    d="M 1.386719 2.867188 C 1.3125 2.882812 1.230469 2.90625 1.203125 2.917969 C 1.175781 2.929688 1.144531 2.9375 1.128906 2.9375 C 1.101562 2.9375 0.929688 3.027344 0.808594 3.105469 C 0.761719 3.136719 0.660156 3.222656 0.585938 3.292969 C 0.296875 3.578125 0.15625 3.875 0.109375 4.292969 C 0.0859375 4.496094 0.0976562 15.375 0.117188 15.445312 C 0.128906 15.480469 0.152344 15.554688 0.167969 15.613281 C 0.199219 15.710938 0.222656 15.777344 0.296875 15.9375 C 0.3125 15.96875 0.332031 16.007812 0.339844 16.015625 C 0.347656 16.027344 0.394531 16.082031 0.4375 16.140625 C 0.546875 16.277344 0.625 16.355469 0.746094 16.441406 C 0.921875 16.570312 1.191406 16.695312 1.289062 16.695312 C 1.308594 16.695312 1.332031 16.703125 1.34375 16.710938 C 1.398438 16.761719 1.738281 16.765625 7.128906 16.765625 C 10.726562 16.765625 12.648438 16.757812 12.753906 16.746094 C 13.269531 16.6875 13.691406 16.417969 13.96875 15.972656 C 14.054688 15.835938 14.140625 15.589844 14.167969 15.414062 C 14.195312 15.25 14.199219 8.667969 14.171875 8.558594 C 14.15625 8.476562 14.085938 8.390625 13.996094 8.335938 C 13.925781 8.292969 13.738281 8.285156 13.648438 8.320312 C 13.59375 8.339844 13.515625 8.414062 13.464844 8.488281 C 13.429688 8.539062 13.429688 8.601562 13.421875 11.945312 C 13.414062 14.578125 13.40625 15.363281 13.390625 15.410156 C 13.3125 15.628906 13.167969 15.800781 12.976562 15.902344 C 12.753906 16.015625 13.214844 16.007812 7.144531 16.007812 C 1.171875 16.007812 1.539062 16.015625 1.351562 15.925781 C 1.207031 15.855469 1.070312 15.730469 0.972656 15.582031 C 0.957031 15.554688 0.941406 15.527344 0.941406 15.515625 C 0.941406 15.503906 0.925781 15.460938 0.902344 15.414062 L 0.867188 15.332031 L 0.863281 9.894531 C 0.859375 6.90625 0.867188 4.398438 0.875 4.324219 C 0.882812 4.246094 0.898438 4.171875 0.90625 4.15625 C 0.914062 4.140625 0.941406 4.085938 0.964844 4.039062 C 1.027344 3.902344 1.199219 3.738281 1.363281 3.664062 L 1.503906 3.597656 L 4.941406 3.589844 C 7.675781 3.582031 8.394531 3.574219 8.433594 3.558594 C 8.574219 3.496094 8.648438 3.398438 8.667969 3.246094 C 8.683594 3.144531 8.632812 3.007812 8.558594 2.9375 C 8.429688 2.824219 8.710938 2.832031 4.945312 2.835938 C 1.804688 2.835938 1.507812 2.839844 1.386719 2.867188 Z M 1.386719 2.867188 " />
                            </g>
                        </svg>