<svg xmlns="http://www.w3.org/2000/svg" xmlns:xlink="http://www.w3.org/1999/xlink" width="18px"
                            height="18px" viewBox="0 0 18 18" version="1.1" style="color: white;">
                            <g id="surface1">
                                <path
                                    style=" stroke:currentColor;fill-rule:nonzero;fill:rgb(100%,100%,100%);fill-opacity:1;"
                                    d="M 3.859375 1.5 C 3.691406 1.609375 3.699219 1.511719 3.699219 3.058594 L 3.699219 4.433594 L 3.605469 4.472656 C 3.550781 4.496094 3.476562 4.527344 3.441406 4.542969 C 3.191406 4.648438 2.824219 4.863281 2.679688 4.988281 C 2.386719 5.238281 2.253906 5.375 2.085938 5.589844 C 1.960938 5.746094 1.929688 5.792969 1.90625 5.839844 C 1.898438 5.855469 1.867188 5.90625 1.839844 5.953125 C 1.769531 6.070312 1.640625 6.355469 1.601562 6.492188 C 1.445312 6.992188 1.410156 7.414062 1.480469 7.933594 C 1.542969 8.402344 1.789062 8.964844 2.117188 9.375 C 2.164062 9.4375 2.285156 9.5625 2.378906 9.65625 C 2.472656 9.746094 2.550781 9.828125 2.554688 9.835938 C 2.5625 9.855469 2.507812 9.902344 2.421875 9.945312 C 2.382812 9.964844 2.292969 10.015625 2.222656 10.0625 C 2.152344 10.105469 2.09375 10.140625 2.089844 10.140625 C 2.078125 10.140625 1.800781 10.339844 1.691406 10.425781 C 1.617188 10.484375 1.199219 10.878906 1.089844 10.992188 C 1.003906 11.085938 0.941406 11.167969 0.765625 11.410156 C 0.613281 11.628906 0.625 11.605469 0.445312 11.953125 C 0.296875 12.230469 0.222656 12.414062 0.132812 12.699219 C 0 13.136719 0 13.136719 0 14.351562 L 0 15.441406 L 0.0546875 15.492188 C 0.0859375 15.519531 0.132812 15.550781 0.160156 15.570312 C 0.207031 15.597656 0.5625 15.601562 4.808594 15.601562 L 9.410156 15.597656 L 9.484375 15.558594 C 9.574219 15.503906 9.628906 15.441406 9.65625 15.355469 C 9.671875 15.3125 9.675781 14.992188 9.671875 14.398438 C 9.664062 13.742188 9.671875 13.503906 9.6875 13.492188 C 9.699219 13.484375 11.480469 13.476562 13.648438 13.476562 C 16.558594 13.476562 17.605469 13.472656 17.660156 13.457031 C 17.753906 13.429688 17.839844 13.347656 17.886719 13.234375 C 17.917969 13.160156 17.921875 12.785156 17.921875 7.453125 L 17.921875 1.75 L 17.867188 1.648438 C 17.828125 1.582031 17.78125 1.527344 17.730469 1.492188 L 17.648438 1.441406 L 3.949219 1.441406 Z M 17.148438 2.160156 C 17.152344 2.167969 17.160156 4.554688 17.160156 7.460938 C 17.160156 12.105469 17.15625 12.75 17.132812 12.757812 C 17.113281 12.761719 15.398438 12.765625 13.320312 12.761719 C 10.324219 12.757812 9.539062 12.75 9.53125 12.734375 C 9.496094 12.617188 9.449219 12.472656 9.429688 12.417969 C 9.324219 12.15625 9.285156 12.058594 9.1875 11.875 C 9.128906 11.761719 9.058594 11.640625 9.039062 11.609375 C 8.984375 11.53125 8.964844 11.480469 8.972656 11.460938 C 8.976562 11.449219 9.441406 11.007812 10.007812 10.480469 C 10.566406 9.953125 11.042969 9.5 11.058594 9.476562 C 11.070312 9.453125 11.089844 9.386719 11.09375 9.324219 C 11.109375 9.183594 11.054688 9.070312 10.9375 9 C 10.871094 8.957031 10.835938 8.949219 10.730469 8.949219 C 10.625 8.949219 10.59375 8.953125 10.527344 9.003906 C 10.484375 9.03125 10.015625 9.464844 9.484375 9.96875 C 8.957031 10.46875 8.515625 10.882812 8.5 10.882812 C 8.488281 10.882812 8.425781 10.828125 8.363281 10.765625 C 8.199219 10.597656 7.636719 10.140625 7.59375 10.140625 C 7.585938 10.140625 7.523438 10.105469 7.453125 10.058594 C 7.382812 10.015625 7.292969 9.964844 7.246094 9.941406 C 7.207031 9.921875 7.144531 9.890625 7.113281 9.867188 L 7.054688 9.832031 L 7.160156 9.734375 C 7.394531 9.523438 7.636719 9.222656 7.757812 9.003906 C 7.78125 8.957031 7.808594 8.90625 7.816406 8.890625 C 7.835938 8.863281 7.863281 8.804688 7.929688 8.65625 C 8 8.5 8.039062 8.382812 8.113281 8.085938 C 8.160156 7.890625 8.199219 7.460938 8.179688 7.328125 C 8.171875 7.265625 8.15625 7.152344 8.152344 7.082031 C 8.132812 6.871094 8.117188 6.785156 8.097656 6.773438 C 8.089844 6.769531 8.078125 6.742188 8.078125 6.710938 C 8.078125 6.679688 8.070312 6.632812 8.058594 6.601562 C 8.046875 6.574219 8.027344 6.523438 8.019531 6.492188 C 7.996094 6.417969 7.9375 6.261719 7.882812 6.160156 C 7.863281 6.113281 7.839844 6.0625 7.832031 6.046875 C 7.824219 6.03125 7.8125 6.003906 7.800781 5.988281 C 7.789062 5.976562 7.738281 5.894531 7.6875 5.808594 C 7.4375 5.40625 7.011719 4.992188 6.59375 4.753906 C 6.425781 4.65625 6.253906 4.570312 6.230469 4.570312 C 6.214844 4.570312 6.199219 4.5625 6.191406 4.550781 C 6.183594 4.539062 6.148438 4.523438 6.113281 4.511719 C 6.078125 4.503906 5.980469 4.472656 5.898438 4.445312 C 5.628906 4.359375 5.609375 4.351562 5.519531 4.339844 C 5.46875 4.332031 5.375 4.316406 5.3125 4.304688 C 5.246094 4.292969 5.023438 4.285156 4.816406 4.28125 L 4.441406 4.28125 L 4.4375 3.246094 C 4.433594 2.679688 4.4375 2.199219 4.445312 2.179688 C 4.457031 2.140625 4.542969 2.140625 10.796875 2.140625 C 14.496094 2.140625 17.140625 2.148438 17.148438 2.160156 Z M 5.128906 5.007812 C 5.25 5.019531 5.371094 5.035156 5.398438 5.046875 C 5.429688 5.058594 5.484375 5.074219 5.53125 5.082031 C 5.753906 5.121094 6.125 5.296875 6.386719 5.484375 C 6.5625 5.609375 6.726562 5.761719 6.855469 5.921875 C 6.90625 5.984375 6.957031 6.046875 6.964844 6.054688 C 6.992188 6.085938 7.121094 6.277344 7.121094 6.285156 C 7.121094 6.289062 7.144531 6.347656 7.175781 6.410156 C 7.367188 6.804688 7.40625 7.003906 7.40625 7.46875 C 7.40625 7.863281 7.382812 8.007812 7.265625 8.3125 C 7.222656 8.421875 7.097656 8.660156 7.046875 8.734375 C 7.019531 8.769531 7 8.800781 7 8.808594 C 7 8.8125 6.945312 8.882812 6.882812 8.964844 C 6.683594 9.210938 6.371094 9.46875 6.113281 9.601562 C 6.066406 9.625 5.996094 9.660156 5.953125 9.683594 C 5.875 9.726562 5.824219 9.746094 5.609375 9.8125 C 5.402344 9.878906 5.199219 9.914062 4.929688 9.921875 C 4.496094 9.933594 4.128906 9.878906 3.894531 9.769531 C 3.863281 9.753906 3.824219 9.742188 3.8125 9.742188 C 3.78125 9.742188 3.496094 9.601562 3.371094 9.527344 C 3.179688 9.40625 2.867188 9.128906 2.730469 8.957031 C 2.335938 8.445312 2.1875 7.996094 2.207031 7.375 C 2.214844 7.085938 2.226562 7.019531 2.300781 6.765625 C 2.46875 6.210938 2.886719 5.679688 3.398438 5.375 C 3.59375 5.257812 3.9375 5.109375 4.058594 5.085938 C 4.089844 5.082031 4.15625 5.066406 4.210938 5.050781 C 4.335938 5.015625 4.742188 4.96875 4.839844 4.976562 C 4.878906 4.980469 5.007812 4.996094 5.128906 5.007812 Z M 6.589844 10.425781 C 6.652344 10.457031 6.714844 10.484375 6.722656 10.484375 C 6.730469 10.484375 6.777344 10.507812 6.824219 10.539062 C 6.875 10.570312 6.925781 10.597656 6.941406 10.597656 C 6.953125 10.597656 6.996094 10.621094 7.039062 10.652344 C 7.082031 10.683594 7.121094 10.710938 7.128906 10.710938 C 7.144531 10.710938 7.40625 10.898438 7.53125 10.996094 C 7.621094 11.070312 7.882812 11.316406 7.960938 11.402344 C 8.089844 11.542969 8.316406 11.84375 8.390625 11.972656 C 8.628906 12.375 8.792969 12.792969 8.859375 13.15625 C 8.914062 13.457031 8.921875 13.597656 8.914062 14.226562 L 8.910156 14.890625 L 0.710938 14.890625 L 0.703125 14.332031 C 0.699219 13.820312 0.707031 13.632812 0.757812 13.296875 C 0.777344 13.175781 0.8125 13.003906 0.839844 12.9375 C 0.847656 12.917969 0.875 12.839844 0.898438 12.765625 C 0.941406 12.636719 1.046875 12.375 1.078125 12.320312 C 1.089844 12.304688 1.132812 12.226562 1.179688 12.140625 C 1.347656 11.832031 1.507812 11.621094 1.816406 11.292969 C 1.992188 11.109375 2.359375 10.816406 2.5625 10.699219 C 2.582031 10.691406 2.671875 10.636719 2.765625 10.585938 C 2.945312 10.480469 3.140625 10.386719 3.183594 10.386719 C 3.207031 10.386719 3.246094 10.433594 3.28125 10.492188 C 3.285156 10.5 3.34375 10.585938 3.40625 10.675781 C 3.46875 10.765625 3.519531 10.847656 3.519531 10.859375 C 3.519531 10.871094 3.527344 10.882812 3.535156 10.882812 C 3.542969 10.886719 3.578125 10.933594 3.609375 10.984375 C 3.695312 11.117188 3.699219 11.121094 3.824219 11.300781 C 3.886719 11.394531 3.941406 11.472656 3.941406 11.484375 C 3.941406 11.496094 3.949219 11.507812 3.957031 11.511719 C 3.964844 11.511719 3.996094 11.558594 4.03125 11.609375 C 4.121094 11.746094 4.125 11.753906 4.210938 11.875 C 4.300781 12.007812 4.328125 12.050781 4.359375 12.105469 C 4.414062 12.203125 4.441406 12.234375 4.515625 12.320312 C 4.578125 12.390625 4.625 12.417969 4.707031 12.441406 C 4.808594 12.472656 4.816406 12.472656 4.925781 12.433594 C 5.054688 12.390625 5.09375 12.351562 5.265625 12.09375 C 5.449219 11.820312 5.53125 11.699219 5.890625 11.171875 C 5.957031 11.074219 6.019531 10.980469 6.03125 10.960938 C 6.042969 10.945312 6.089844 10.875 6.136719 10.808594 C 6.183594 10.742188 6.21875 10.6875 6.21875 10.679688 C 6.21875 10.675781 6.257812 10.621094 6.304688 10.554688 C 6.355469 10.488281 6.398438 10.421875 6.40625 10.402344 C 6.425781 10.355469 6.457031 10.359375 6.589844 10.425781 Z M 4.699219 10.644531 C 4.863281 10.65625 5.015625 10.648438 5.144531 10.632812 C 5.253906 10.621094 5.347656 10.613281 5.351562 10.621094 C 5.363281 10.628906 5.265625 10.78125 5.078125 11.046875 C 5.046875 11.089844 5.019531 11.132812 5.019531 11.136719 C 5.019531 11.140625 4.972656 11.207031 4.917969 11.289062 C 4.804688 11.445312 4.792969 11.445312 4.730469 11.332031 C 4.6875 11.246094 4.660156 11.203125 4.597656 11.125 C 4.5625 11.085938 4.539062 11.050781 4.539062 11.042969 C 4.539062 11.039062 4.5 10.976562 4.449219 10.90625 C 4.398438 10.839844 4.359375 10.777344 4.359375 10.773438 C 4.359375 10.765625 4.347656 10.746094 4.332031 10.730469 C 4.316406 10.714844 4.296875 10.679688 4.289062 10.65625 C 4.277344 10.613281 4.277344 10.613281 4.363281 10.625 C 4.410156 10.628906 4.5625 10.640625 4.699219 10.644531 Z M 4.699219 10.644531 " />
                                <path
                                    style=" stroke:currentColor;fill-rule:nonzero;fill:rgb(100%,100%,100%);fill-opacity:1;"
                                    d="M 9.542969 3.589844 C 9.441406 3.625 9.351562 3.71875 9.320312 3.816406 C 9.269531 3.992188 9.34375 4.148438 9.523438 4.234375 L 9.628906 4.285156 L 14.230469 4.285156 L 14.339844 4.222656 C 14.488281 4.136719 14.5625 4.007812 14.539062 3.875 C 14.511719 3.746094 14.480469 3.695312 14.382812 3.628906 L 14.296875 3.574219 L 11.953125 3.570312 C 10.152344 3.566406 9.59375 3.570312 9.542969 3.589844 Z M 9.542969 3.589844 " />
                                <path
                                    style=" stroke:currentColor;fill-rule:nonzero;fill:rgb(100%,100%,100%);fill-opacity:1;"
                                    d="M 9.605469 5.699219 C 9.4375 5.722656 9.300781 5.878906 9.300781 6.050781 C 9.300781 6.136719 9.378906 6.273438 9.464844 6.332031 L 9.546875 6.386719 L 12.664062 6.386719 C 15.550781 6.386719 15.785156 6.386719 15.835938 6.355469 C 15.929688 6.300781 15.980469 6.246094 16.011719 6.183594 C 16.082031 6.023438 16.011719 5.824219 15.855469 5.730469 C 15.792969 5.695312 15.71875 5.695312 12.730469 5.695312 C 11.046875 5.691406 9.640625 5.695312 9.605469 5.699219 Z M 9.605469 5.699219 " />
                                <path
                                    style=" stroke:currentColor;fill-rule:nonzero;fill:rgb(100%,100%,100%);fill-opacity:1;"
                                    d="M 9.519531 7.847656 C 9.285156 7.964844 9.230469 8.222656 9.402344 8.40625 C 9.523438 8.535156 9.339844 8.53125 12.691406 8.53125 C 15.964844 8.53125 15.800781 8.535156 15.921875 8.425781 C 16.03125 8.324219 16.066406 8.191406 16.019531 8.054688 C 15.988281 7.976562 15.953125 7.933594 15.851562 7.863281 L 15.773438 7.808594 L 12.683594 7.808594 C 9.703125 7.8125 9.589844 7.8125 9.519531 7.847656 Z M 9.519531 7.847656 " />
                            </g>
                        </svg>